<?xml version="1.0" standalone="no"?>
<!DOCTYPE svg PUBLIC "-//W3C//DTD SVG 1.1//EN" "http://www.w3.org/Graphics/SVG/1.1/DTD/svg11.dtd" >
<svg xmlns="http://www.w3.org/2000/svg">
<metadata></metadata>
<defs>
<font id="gobold_hollowregular" horiz-adv-x="1053" >
<font-face units-per-em="2048" ascent="1638" descent="-410" />
<missing-glyph horiz-adv-x="508" />
<glyph horiz-adv-x="0" />
<glyph unicode="&#xd;" horiz-adv-x="508" />
<glyph unicode=" "  horiz-adv-x="508" />
<glyph unicode="&#x09;" horiz-adv-x="508" />
<glyph unicode="&#xa0;" horiz-adv-x="508" />
<glyph unicode="!" horiz-adv-x="595" d="M120 -15v355h355v-355h-355zM120 1977h355l-21 -1462h-313zM150 15h295v295h-295v-295zM150 1947l21 -1402h253l21 1402h-295z" />
<glyph unicode="&#x22;" horiz-adv-x="1000" d="M120 1978h328l-36 -682h-256zM152 1948l32 -622h200l32 622h-264zM552 1978h328l-36 -682h-256zM584 1948l32 -622h200l32 622h-264z" />
<glyph unicode="#" horiz-adv-x="1379" d="M80 715v183h207l45 227h-210v183h247l133 670h267l-133 -670h215l133 670h267l-133 -670h181v-183h-218l-45 -227h221v-183h-258l-145 -730h-267l145 730h-215l-145 -730h-267l145 730h-170zM110 745h176l-145 -730h207l145 730h275l-145 -730h207l145 730h252v123h-227 l57 287h212v123h-187l133 670h-207l-133 -670h-275l133 670h-207l-133 -670h-241v-123h216l-57 -287h-201v-123zM518 868l57 287h275l-57 -287h-275zM554 898h215l45 227h-215z" />
<glyph unicode="$" horiz-adv-x="1083" d="M120 413v278h313v-278q0 -118 108 -118t108 118v223q0 135 -258 320q-271 194 -271 473v184q0 371 290 417v178h262v-178q291 -46 291 -417v-279h-314v279q0 117 -107 118h-2q-107 0 -107 -118v-178q0 -124 259 -309q271 -193 271 -465v-248q0 -372 -291 -417v-241h-262 v241q-290 46 -290 417zM150 413q0 -345 290 -391v-237h202v237q291 45 291 391v248q0 256 -259 441q-271 193 -271 333v178q0 148 137 148h2q137 -1 137 -148v-249h254v249q0 345 -291 391v174h-202v-174q-290 -46 -290 -391v-184q0 -263 259 -449q270 -193 270 -344v-223 q0 -148 -138 -148t-138 148v248h-253v-248z" />
<glyph unicode="%" horiz-adv-x="1727" d="M125 1079v704q0 257 254 257q253 0 253 -257v-704q0 -257 -253 -257q-254 0 -254 257zM155 1079q0 -227 224 -227q223 0 223 227v704q0 227 -223 227q-224 0 -224 -227v-704zM291 1079v704q0 93 86 93h2q87 0 87 -93v-704q0 -93 -87 -93q-88 0 -88 93zM321 1079 q0 -63 58 -63q57 0 57 63v704q0 63 -57 63h-2q-56 0 -56 -63v-704zM376 -15l735 1993h206l-733 -1993h-208zM420 15h144l711 1933h-144zM1095 243v704q0 257 253 257q254 0 254 -257v-704q0 -257 -254 -257h-2q-251 0 -251 257zM1125 243q0 -227 221 -227h2q224 0 224 227 v704q0 227 -224 227q-223 0 -223 -227v-704zM1261 243v704q0 93 86 93h2q87 0 87 -93v-704q0 -93 -88 -93q-87 0 -87 93zM1291 243q0 -63 57 -63q58 0 58 63v704q0 63 -57 63h-2q-56 0 -56 -63v-704z" />
<glyph unicode="&#x26;" horiz-adv-x="1213" d="M120 413v327q0 202 137 273q-137 71 -137 273v295q0 397 331 425q43 3 89 3q38 0 79 -2q344 -23 344 -426v-99h-313v99q0 107 -57 116q-23 4 -49 4q-22 0 -46 -3q-65 -7 -65 -117v-295q0 -84 68 -111q17 -7 40 -8h109v134h313v-134h180v-309h-180v-445q0 -410 -359 -426 q-35 -1 -66 -1q-62 0 -108 5q-310 37 -310 422zM150 413q0 -359 284 -392q44 -5 104 -5q31 0 64 1q331 14 331 396v475h180v249h-180v134h-253v-134h-139q-29 1 -52 10q-86 35 -86 139v295q0 136 91 147q26 3 50 3q28 0 53 -4q83 -13 83 -146v-69h253v69q0 375 -316 396 q-39 2 -77 2q-44 0 -87 -3q-303 -26 -303 -395v-295q0 -184 173 -273q-173 -89 -173 -273v-327zM403 413v327q0 104 86 138q23 9 52 10h139v-475q0 -143 -114 -148q-14 -1 -27 -1q-56 0 -83 12q-53 22 -53 137zM433 413q0 -95 35 -109q21 -10 71 -10q11 0 25 1q86 3 86 118 v445h-109q-23 -1 -40 -8q-68 -26 -68 -110v-327z" />
<glyph unicode="'" horiz-adv-x="568" d="M120 1978h328l-36 -682h-256zM152 1948l32 -622h200l32 622h-264z" />
<glyph unicode="(" horiz-adv-x="574" d="M120 166v1632q0 422 424 427v-262q-111 -3 -111 -119v-1725q0 -115 111 -118v-263q-424 5 -424 428zM150 166q0 -393 364 -398v203q-111 3 -111 148v1725q0 146 111 149v202q-364 -5 -364 -397v-1632z" />
<glyph unicode=")" horiz-adv-x="574" d="M30 1q111 3 111 118v1725q0 116 -111 119v262q424 -5 424 -427v-1632q0 -423 -424 -428v263zM60 -29v-203q364 5 364 398v1632q0 392 -364 397v-202q111 -3 111 -149v-1725q0 -145 -111 -148z" />
<glyph unicode="*" horiz-adv-x="1042" d="M120 1679q0 29 12 66q33 107 112 107q34 0 75 -21q63 -33 98 -71q-30 54 -38 123q-1 13 -1 25q0 119 141 120h4q140 0 140 -114q0 -17 -3 -37q-13 -71 -38 -117q43 46 107 76q36 17 67 17q78 0 113 -105q13 -39 13 -70q0 -94 -113 -111q-17 -2 -39 -2q-71 0 -84 2 q58 -27 105 -78q42 -44 42 -89q0 -59 -70 -110q-54 -40 -99 -40q-64 0 -103 79q-33 65 -39 116q-7 -62 -42 -122q-39 -72 -102 -72q-43 0 -96 37q-73 52 -73 110q0 47 48 95q51 51 95 70q-7 -1 -78 -1q-29 0 -48 4q-106 21 -106 113zM150 1679q0 -68 82 -83q17 -4 42 -4 q69 0 225 22q-173 -96 -220 -143q-40 -38 -40 -73q0 -42 61 -86q45 -31 78 -31q45 0 76 56t66 251q38 -186 67 -245q31 -63 77 -63q35 0 81 34q58 43 58 86q0 33 -34 69q-43 47 -222 143q154 -17 223 -17q20 0 35 2q87 13 87 81q0 27 -11 60q-29 85 -85 85q-25 0 -55 -15 q-58 -26 -207 -172q85 180 96 247q3 16 3 31q0 84 -110 84h-4q-111 -1 -111 -90q0 -10 1 -21q8 -63 104 -251q-149 138 -208 169q-35 17 -61 17q-57 0 -84 -87q-10 -31 -10 -56z" />
<glyph unicode="+" horiz-adv-x="1077" d="M120 850v263h288v287h262v-287h287v-263h-287v-287h-262v287h-288zM150 880h288v-287h202v287h287v203h-287v287h-202v-287h-288v-203z" />
<glyph unicode="," horiz-adv-x="621" d="M120 -15v355h381v-304l-112 -378h-212l58 327h-115zM150 15h121l-58 -327h154l104 352v270h-321v-295z" />
<glyph unicode="-" horiz-adv-x="816" d="M50 826v263h716v-263h-716zM80 856h656v203h-656v-203z" />
<glyph unicode="." horiz-adv-x="595" d="M120 -15v355h355v-355h-355zM150 15h295v295h-295v-295z" />
<glyph unicode="/" horiz-adv-x="785" d="M60 -15l397 1993h267l-397 -1993h-267zM96 15h207l385 1933h-207z" />
<glyph unicode="0" horiz-adv-x="1083" d="M120 381v1200q0 428 421 428q422 0 422 -428v-1200q0 -427 -422 -427q-421 0 -421 427zM150 381q0 -397 391 -397q392 0 392 397v1200q0 398 -392 398q-391 0 -391 -398v-1200zM403 381v1200q0 148 137 148h2q138 0 138 -148v-1200q0 -148 -139 -148q-138 0 -138 148z M433 381q0 -118 108 -118q109 0 109 118v1200q0 118 -108 118h-2q-107 0 -107 -118v-1200z" />
<glyph unicode="1" horiz-adv-x="1103" d="M130 -15v309h265v1374h-265v309h578v-1683h265v-309h-843zM160 15h783v249h-265v1683h-518v-249h265v-1434h-265v-249z" />
<glyph unicode="2" horiz-adv-x="1103" d="M130 -15v436q0 273 270 466q259 185 260 309v385q0 118 -107 118h-2q-108 0 -108 -118v-278h-313v278q0 428 421 428q422 0 422 -428v-392q0 -278 -271 -472q-259 -185 -259 -320v-103h530v-309h-843zM160 15h783v249h-530v133q0 151 271 344q259 186 259 448v392 q0 398 -392 398q-391 0 -391 -398v-248h253v248q0 148 138 148h2q137 0 137 -148v-385q-1 -140 -272 -333q-258 -185 -258 -442v-406z" />
<glyph unicode="3" horiz-adv-x="1103" d="M130 382v278h310v-279q0 -122 111 -122q112 0 112 122v358q0 97 -36 113q-21 9 -68 9h-111v309h133q36 0 52 10q30 17 30 107v292q0 97 -36 113q-21 9 -71 9q-14 0 -28 -1q-88 -3 -88 -121v-276h-310v278q0 293 173 382q118 62 243 62q115 0 235 -53q192 -83 192 -391 v-296q0 -202 -137 -273q137 -71 137 -273v-357q0 -264 -138 -362q-88 -62 -269 -66h-24q-160 0 -250 52q-162 92 -162 376zM160 382q0 -266 146 -350q84 -48 236 -48h24q171 4 251 60q126 90 126 338v357q0 184 -173 273q173 89 173 273v296q0 288 -174 363q-114 51 -223 51 q-117 0 -229 -58q-157 -81 -157 -356v-248h250v246q0 146 116 151q16 1 30 1q56 0 83 -11q54 -24 54 -141v-292q0 -108 -44 -133q-24 -14 -68 -14h-103v-249h81q53 0 80 -11q54 -24 54 -141v-358q0 -152 -142 -152q-141 0 -141 152v249h-250v-248z" />
<glyph unicode="4" horiz-adv-x="1103" d="M52 466v266l501 1245h386v-1202h109v-309h-109v-481h-313v481h-574zM82 496h574v-481h253v481h109v249h-109v1202h-336l-491 -1221v-230zM324 745l332 843v-843h-332zM368 775h258v655z" />
<glyph unicode="5" horiz-adv-x="1104" d="M130 900l44 1077h800v-309h-500l-17 -364q48 55 179 55q18 0 36 -2q155 -14 236 -125q66 -90 66 -294v-557q0 -385 -311 -422q-46 -5 -107 -5q-31 0 -66 1q-359 16 -359 426v247h313v-247q0 -115 84 -118h20q56 0 78 9q35 15 35 109v557q0 94 -35 109q-21 10 -71 10 q-12 0 -26 -1q-74 -3 -82 -63l-4 -93h-313zM161 381q0 -382 331 -396q33 -1 64 -1q59 0 103 5q285 33 285 392v557q0 194 -60 276q-73 101 -214 113q-18 2 -34 2q-117 0 -213 -111l23 480h498v249h-742l-40 -1017h253l2 65q12 86 110 91q14 1 28 1q56 0 83 -12 q53 -23 53 -137v-557q0 -114 -53 -137q-28 -11 -90 -11h-20q-114 5 -114 148v217h-253v-217z" />
<glyph unicode="6" horiz-adv-x="1103" d="M130 381v1200q0 428 421 428q422 0 422 -428v-278h-313v278q0 118 -108 118h-2q-107 0 -107 -118v-443q58 52 180 52q22 0 44 -2q142 -15 223 -102q83 -89 83 -315v-390q0 -427 -422 -427q-421 0 -421 427zM160 381q0 -397 391 -397q392 0 392 397v390q0 214 -75 295 q-73 79 -203 92q-22 2 -42 2q-110 0 -210 -90v511q0 148 137 148h2q138 0 138 -148v-248h253v248q0 398 -392 398q-391 0 -391 -398v-1200zM413 381v390q0 143 113 148q14 1 28 1q56 0 83 -12q53 -22 53 -137v-390q0 -148 -139 -148q-138 0 -138 148zM443 381 q0 -118 108 -118q109 0 109 118v390q0 95 -35 109q-21 10 -71 10q-12 0 -26 -1q-85 -3 -85 -118v-390z" />
<glyph unicode="7" horiz-adv-x="1103" d="M121 1668v309h867v-218l-399 -1774h-321l378 1683h-525zM151 1698h533l-378 -1683h259l393 1748v184h-807v-249z" />
<glyph unicode="8" horiz-adv-x="1103" d="M130 382v357q0 202 137 273q-137 71 -137 273v296q0 293 173 382q118 62 243 62q115 0 235 -53q192 -83 192 -391v-296q0 -202 -137 -273q137 -71 137 -273v-357q0 -264 -138 -362q-88 -62 -269 -66h-24q-160 0 -250 52q-162 92 -162 376zM160 382q0 -266 146 -350 q84 -48 236 -48h24q171 4 251 60q126 90 126 338v357q0 184 -173 273q173 89 173 273v296q0 288 -174 363q-114 51 -223 51q-117 0 -229 -58q-157 -81 -157 -356v-296q0 -184 173 -273q-173 -89 -173 -273v-357zM410 381v358q0 146 116 151q16 1 30 1q56 0 83 -11 q54 -24 54 -141v-358q0 -152 -142 -152q-141 0 -141 152zM410 1287v292q0 146 116 151q16 1 30 1q56 0 83 -11q54 -24 54 -141v-292q0 -152 -142 -152q-141 0 -141 152zM440 381q0 -122 111 -122q112 0 112 122v358q0 97 -36 113q-21 9 -71 9q-14 0 -28 -1q-88 -3 -88 -121 v-358zM440 1287q0 -122 111 -122q112 0 112 122v292q0 97 -36 113q-21 9 -71 9q-14 0 -28 -1q-88 -3 -88 -121v-292z" />
<glyph unicode="9" horiz-adv-x="1103" d="M130 381v279h313v-279q0 -117 108 -118h2q107 0 107 118v445q-60 -54 -183 -54q-20 0 -41 2q-142 15 -223 102q-83 90 -83 315v390q0 427 422 428q421 0 421 -428v-1200q0 -427 -422 -427q-421 0 -421 427zM160 381q0 -397 391 -397q392 0 392 397v1200q0 398 -391 398 q-392 -1 -392 -398v-390q0 -213 75 -295q73 -79 203 -92q21 -2 39 -2q111 0 213 90v-511q0 -148 -137 -148h-2q-138 1 -138 148v249h-253v-249zM413 1191v390q0 148 139 148q138 0 138 -148v-390q0 -144 -114 -147q-16 -1 -29 -1q-55 0 -81 11q-53 23 -53 137zM443 1191 q0 -94 35 -109q20 -9 69 -9q13 0 27 1q86 3 86 117v390q0 118 -108 118q-109 0 -109 -118v-390z" />
<glyph unicode=":" horiz-adv-x="594" d="M120 -15v355h354v-355h-354zM120 990v354h354v-354h-354zM150 15h294v295h-294v-295zM150 1020h294v294h-294v-294z" />
<glyph unicode=";" horiz-adv-x="621" d="M120 -15v355h381v-304l-112 -378h-212l58 327h-115zM120 990v354h355v-354h-355zM150 15h121l-58 -327h154l104 352v270h-321v-295zM150 1020h295v294h-295v-294z" />
<glyph unicode="&#x3c;" horiz-adv-x="1077" d="M120 820v309l837 469v-310l-570 -311l570 -302v-308zM150 838l777 -421v240l-604 320l604 329v240l-777 -435v-273z" />
<glyph unicode="=" horiz-adv-x="1077" d="M120 618v262h837v-262h-837zM120 1081v263h837v-263h-837zM150 648h777v202h-777v-202zM150 1111h777v203h-777v-203z" />
<glyph unicode="&#x3e;" horiz-adv-x="1077" d="M120 367v308l570 302l-570 311v310l837 -469v-309zM150 417l777 421v273l-777 435v-240l604 -329l-604 -320v-240z" />
<glyph unicode="?" horiz-adv-x="1083" d="M120 1303v278q0 428 422 428q421 0 421 -428v-197q0 -255 -203 -458q-195 -193 -195 -334v-60h-313v84q0 251 203 453q195 192 195 322v190q0 118 -107 118h-2q-108 0 -108 -118v-278h-313zM150 1333h253v248q0 148 138 148h2q137 0 137 -148v-190q0 -142 -203 -344 q-195 -192 -195 -431v-54h253v30q0 153 203 356q195 193 195 436v197q0 398 -391 398q-392 0 -392 -398v-248zM236 -15v355h355v-355h-355zM266 15h295v295h-295v-295z" />
<glyph unicode="@" horiz-adv-x="1513" d="M130 596v801q0 623 627 623q626 0 626 -610v-122h-1v-64q0 -287 -282 -287h-94v-329q0 -287 -283 -287q-282 0 -282 287v257q0 286 282 286h67v247q0 72 -66 72h-2q-65 0 -65 -72v-85h-216v85q0 286 282 286q283 0 283 -286v-247h94q66 0 66 73v186q0 397 -409 397 q-410 0 -410 -410v-801q0 -397 410 -397q409 0 409 409v58h217v-58q0 -622 -626 -622q-627 0 -627 610zM160 596q0 -580 597 -580q596 0 596 592v28h-157v-28q0 -439 -439 -439q-440 0 -440 427v801q0 440 440 440q439 0 439 -427v-186q0 -103 -96 -103h-124v277 q0 256 -253 256q-252 0 -252 -256v-55h156v55q0 102 95 102h2q96 0 96 -102v-277h-97q-252 0 -252 -256v-257q0 -257 252 -257q253 0 253 257v359h124q252 0 252 257v94h1v92q0 580 -596 580q-597 0 -597 -593v-801zM611 608v257q0 103 96 103l97 -1v-359q0 -103 -97 -103 q-96 0 -96 103zM641 608q0 -73 66 -73q67 0 67 73v329l-67 1q-66 0 -66 -73v-257z" />
<glyph unicode="A" horiz-adv-x="1085" d="M40 -15l94 710l202 1282h414l201 -1279l94 -713h-316l-55 416h-263l-56 -416h-315zM74 15h255l56 416h315l55 -416h256l-90 679l-197 1253h-362l-198 -1256zM417 681l125 945l125 -945h-250zM451 711h182l-91 687z" />
<glyph unicode="B" horiz-adv-x="1073" d="M130 -15v1992l451 -1q392 0 392 -427v-295q-6 -202 -143 -273q137 -71 143 -273v-296q0 -426 -392 -426q-5 0 -17 -1h-434zM160 15h402q12 1 19 1q362 0 362 396v296q0 184 -173 273q173 89 173 273v295q0 397 -362 397l-421 1v-1932zM413 264v592h104q62 0 87 -10 q86 -34 86 -138v-296q0 -148 -138 -148h-139zM413 1106v592h139q138 0 138 -149v-295q0 -104 -87 -139q-24 -9 -86 -9h-104zM443 294h109q108 0 108 118v296q0 84 -68 110q-19 8 -75 8h-74v-532zM443 1136h74q56 0 76 7q67 27 67 111v295q0 119 -108 119h-109v-532z" />
<glyph unicode="C" d="M110 381v1200q0 427 421 427q422 0 422 -427v-279h-313v279q0 117 -108 118h-2q-107 0 -107 -118v-1200q0 -118 108 -118q109 0 109 118v279h313v-279q0 -427 -422 -428q-421 0 -421 428zM140 381q0 -398 391 -398q392 1 392 398v249h-253v-249q0 -148 -139 -148 q-138 0 -138 148v1200q0 148 137 148h2q138 -1 138 -148v-249h253v249q0 397 -392 397q-391 0 -391 -397v-1200z" />
<glyph unicode="D" horiz-adv-x="1083" d="M130 -15v1992l451 -1q392 0 392 -427v-1137q0 -426 -392 -426q-5 0 -17 -1h-434zM160 15h402q12 1 19 1q362 0 362 396v1137q0 397 -362 397l-421 1v-1932zM413 264v1434h139q138 0 138 -149v-1137q0 -148 -138 -148h-139zM443 294h109q108 0 108 118v1137 q0 119 -108 119h-109v-1374z" />
<glyph unicode="E" horiz-adv-x="974" d="M130 -15v1992h764v-309h-451v-532h388v-310h-388v-532h451v-309h-764zM160 15h704v249h-451v592h388v250h-388v592h451v249h-704v-1932z" />
<glyph unicode="F" horiz-adv-x="954" d="M130 -15v1992h764v-309h-451v-532h388v-310h-388v-841h-313zM160 15h253v841h388v250h-388v592h451v249h-704v-1932z" />
<glyph unicode="G" horiz-adv-x="1063" d="M110 381v1200q0 427 421 427q422 0 422 -427v-279h-313v279q0 117 -108 118h-2q-107 0 -107 -118v-1200q0 -118 108 -118q109 0 109 118v445h-143v310h456v-755q0 -427 -422 -428q-421 0 -421 428zM140 381q0 -398 391 -398q392 1 392 398v725h-396v-250h143v-475 q0 -148 -139 -148q-138 0 -138 148v1200q0 148 137 148h2q138 -1 138 -148v-249h253v249q0 397 -392 397q-391 0 -391 -397v-1200z" />
<glyph unicode="H" horiz-adv-x="1103" d="M130 -15v1992h313v-841h217v841h313v-1992h-313v841h-217v-841h-313zM160 15h253v841h277v-841h253v1932h-253v-841h-277v841h-253v-1932z" />
<glyph unicode="I" horiz-adv-x="583" d="M135 -15v1992h313v-1992h-313zM165 15h253v1932h-253v-1932z" />
<glyph unicode="J" horiz-adv-x="1003" d="M30 381v131h313v-131q0 -118 109 -118q108 0 108 118v1596h313v-1596q0 -428 -421 -428q-422 1 -422 428zM60 381q0 -397 392 -398q391 0 391 398v1566h-253v-1566q0 -148 -138 -148q-139 0 -139 148v101h-253v-101z" />
<glyph unicode="K" horiz-adv-x="1094" d="M130 -15v1992h313v-798l275 798h336l-380 -996l380 -996h-336l-275 798v-798h-313zM160 15h253v946l327 -946h270l-368 966l368 966h-270l-327 -948v948h-253v-1932z" />
<glyph unicode="L" horiz-adv-x="934" d="M130 -15v1992h313v-1683h451v-309h-764zM160 15h704v249h-451v1683h-253v-1932z" />
<glyph unicode="M" horiz-adv-x="1518" d="M130 -15v1992h310l321 -1296l317 1296h310v-1992h-301v978l-215 -978h-216l-222 982v-982h-304zM160 15h244v1220l276 -1220h168l269 1224v-1224h241v1932h-256l-341 -1392l-345 1392h-256v-1932z" />
<glyph unicode="N" horiz-adv-x="1103" d="M130 -15v1992h310l241 -1024v1019l292 5v-1992h-310l-231 987v-987h-302zM160 15h242v1217l285 -1217h256v1932l-232 -5v-1247l-295 1252h-256v-1932z" />
<glyph unicode="O" horiz-adv-x="1063" d="M110 381v1200q0 427 421 427q422 0 422 -427v-1200q0 -427 -422 -428q-421 0 -421 428zM140 381q0 -398 391 -398q392 1 392 398v1200q0 397 -392 397q-391 0 -391 -397v-1200zM393 381v1200q0 148 137 148h2q138 -1 138 -148v-1200q0 -148 -139 -148q-138 0 -138 148z M423 381q0 -118 108 -118q109 0 109 118v1200q0 117 -108 118h-2q-107 0 -107 -118v-1200z" />
<glyph unicode="P" horiz-adv-x="1029" d="M130 -15v1992l427 -1q392 0 392 -427v-295q0 -315 -281 -406q-68 -22 -194 -22h-31v-841h-313zM160 15h253v841h61q122 0 184 20q261 85 261 378v295q0 397 -362 397l-397 1v-1932zM413 1106v592h115q138 0 138 -149v-295q0 -104 -87 -139q-24 -9 -86 -9h-80zM443 1136 h50q56 0 76 7q67 27 67 111v295q0 119 -108 119h-85v-532z" />
<glyph unicode="Q" horiz-adv-x="1063" d="M110 381v1200q0 427 421 427q422 0 422 -427v-1200q0 -381 -309 -420q3 -36 309 -38v-266q-270 0 -367 51q-130 66 -133 249q-343 25 -343 424zM140 381q0 -371 343 -396q3 -193 117 -251q91 -47 323 -47v206q-304 2 -311 94q311 39 311 394v1200q0 397 -392 397 q-391 0 -391 -397v-1200zM393 381v1200q0 148 137 148h2q138 -1 138 -148v-1200q0 -148 -139 -148q-138 0 -138 148zM423 381q0 -118 108 -118q109 0 109 118v1200q0 117 -108 118h-2q-107 0 -107 -118v-1200z" />
<glyph unicode="R" horiz-adv-x="1080" d="M130 -15v1992l427 -1q392 0 392 -427v-295q0 -269 -219 -350l320 -919h-342l-255 861l-10 -1v-860h-313zM160 15h253v856l62 9l255 -865h278l-316 907q227 83 227 332v295q0 397 -362 397l-397 1v-1932zM413 1106v592h115q138 0 138 -149v-295q0 -104 -87 -139 q-24 -9 -86 -9h-80zM443 1136h50q56 0 76 7q67 27 67 111v295q0 119 -108 119h-85v-532z" />
<glyph unicode="S" horiz-adv-x="1063" d="M110 381v279h313v-279q0 -118 109 -118q108 0 108 118v224q0 134 -259 320q-271 193 -271 472v184q0 427 421 427q422 0 422 -427v-279h-313v279q0 117 -108 118h-2q-107 0 -107 -118v-178q0 -123 259 -309q271 -193 271 -465v-248q0 -428 -421 -428q-422 1 -422 428z M140 381q0 -397 392 -398q391 0 391 398v248q0 256 -259 441q-271 194 -271 333v178q0 148 137 148h2q138 -1 138 -148v-249h253v249q0 397 -392 397q-391 0 -391 -397v-184q0 -263 259 -448q271 -194 271 -344v-224q0 -148 -138 -148q-139 0 -139 148v249h-253v-249z" />
<glyph unicode="T" horiz-adv-x="943" d="M50 1668v309h843v-309h-265v-1683h-313v1683h-265zM80 1698h265v-1683h253v1683h265v249h-783v-249z" />
<glyph unicode="U" horiz-adv-x="1083" d="M120 381v1596h313v-1596q0 -118 108 -118q109 0 109 118v1596h313v-1596q0 -427 -422 -428q-421 0 -421 428zM150 381q0 -398 391 -398q392 1 392 398v1566h-253v-1566q0 -148 -139 -148q-138 0 -138 148v1566h-253v-1566z" />
<glyph unicode="V" horiz-adv-x="1085" d="M40 1977h316l186 -1412l187 1412h316l-94 -713l-201 -1279h-414l-202 1281zM74 1947l90 -677l198 -1255h362l197 1253l90 679h-256l-213 -1612l-212 1612h-256z" />
<glyph unicode="W" horiz-adv-x="1766" d="M40 1977h315l187 -1413l187 1413h307l187 -1413l187 1413h316l-94 -713l-201 -1279h-414l-134 923l-133 -923h-414l-202 1281zM74 1947l90 -677l198 -1255h362l159 1103l160 -1103h362l197 1253l90 679h-256l-213 -1611l-213 1611h-255l-213 -1611l-213 1611h-255z" />
<glyph unicode="X" horiz-adv-x="1059" d="M40 -15l331 996l-331 996h317l173 -519l172 519h317l-331 -996l331 -996h-317l-172 519l-173 -519h-317zM82 15h253l195 585l194 -585h253l-321 966l321 966h-253l-194 -585l-195 585h-253l321 -966z" />
<glyph unicode="Y" horiz-adv-x="1107" d="M40 1977h332l181 -719l181 719h332l-349 -1133l-7 -21v-838h-313v837l-8 22zM80 1947l337 -1093l10 -26v-813h253v812l9 27l337 1093h-268l-205 -811l-205 811h-268z" />
<glyph unicode="Z" horiz-adv-x="910" d="M80 -15v187l380 1496h-367v309h720v-187l-380 -1496h397v-309h-750zM110 15h690v249h-405l388 1530v153h-660v-249h375l-388 -1530v-153z" />
<glyph unicode="[" horiz-adv-x="577" d="M130 -262v2487h417v-262h-154v-1962h154v-263h-417zM160 -232h357v203h-154v2022h154v202h-357v-2427z" />
<glyph unicode="\" horiz-adv-x="785" d="M60 1978h267l397 -1993h-267zM96 1948l385 -1933h207l-385 1933h-207z" />
<glyph unicode="]" horiz-adv-x="577" d="M30 1h154v1962h-154v262h417v-2487h-417v263zM60 -29v-203h357v2427h-357v-202h154v-2022h-154z" />
<glyph unicode="^" horiz-adv-x="1203" d="M100 1157l364 837h275l364 -837h-287l-215 494l-214 -494h-287zM146 1187h221l234 540l235 -540h221l-338 777h-235z" />
<glyph unicode="_" horiz-adv-x="1062" d="M0 -92h1062v-241h-1062v241zM30 -122v-181h1002v181h-1002z" />
<glyph unicode="`" horiz-adv-x="809" d="M130 1974v99h243l306 -283h-264zM160 1990l263 -170h180l-242 223h-201v-53z" />
<glyph unicode="a" horiz-adv-x="1086" d="M40 -15l94 628l202 1131h414l201 -1128l94 -631h-316l-55 368h-263l-56 -368h-315zM74 15h255l56 368h315l55 -368h256l-90 597l-197 1102h-362l-198 -1105zM417 599l125 834l125 -834h-250zM451 629h182l-91 602z" />
<glyph unicode="b" horiz-adv-x="1073" d="M130 -15v1759h434q12 -1 17 -1q392 0 392 -377v-261q0 -181 -134 -240q134 -60 134 -241v-260q0 -378 -392 -378h-18zM160 15l403 1h18q362 0 362 348v268q0 177 -176 233q176 50 176 236v265q0 347 -362 347q-7 0 -19 1h-402v-1699zM413 231v526h104q62 0 86 -9 q87 -30 87 -124v-260q0 -133 -138 -133h-139zM413 973v525h139q138 0 138 -132v-261q0 -93 -87 -123q-24 -9 -86 -9h-104zM443 261h109q108 0 108 103v260q0 72 -67 96q-20 7 -76 7h-74v-466zM443 1003h74q56 0 76 7q67 24 67 95v261q0 102 -108 102h-109v-465z" />
<glyph unicode="c" d="M110 336v1057q0 379 421 379q422 0 422 -379v-247h-313v247q0 102 -108 103q-109 0 -109 -103v-1057q0 -102 108 -102q109 0 109 102v248h313v-248q0 -378 -422 -378q-421 0 -421 378zM140 336q0 -348 391 -348q392 0 392 348v218h-253v-218q0 -132 -139 -132 q-138 0 -138 132v1057q0 133 139 133q138 -1 138 -133v-217h253v217q0 349 -392 349q-391 0 -391 -349v-1057z" />
<glyph unicode="d" horiz-adv-x="1083" d="M130 -15v1759h434q12 -1 17 -1q392 0 392 -377v-1002q0 -378 -392 -378h-18zM160 15l403 1h18q362 0 362 348v1002q0 347 -362 347q-7 0 -19 1h-402v-1699zM413 231v1267h139q138 0 138 -132v-1002q0 -133 -138 -133h-139zM443 261h109q108 0 108 103v1002 q0 102 -108 102h-109v-1207z" />
<glyph unicode="e" horiz-adv-x="954" d="M130 -15v1759h764v-276h-451v-465h388v-276h-388v-466h451v-276h-764zM160 15h704v216h-451v526h388v216h-388v525h451v216h-704v-1699z" />
<glyph unicode="f" horiz-adv-x="954" d="M130 -15v1759h764v-276h-451v-465h388v-276h-388v-742h-313zM160 15h253v742h388v216h-388v525h451v216h-704v-1699z" />
<glyph unicode="g" horiz-adv-x="1063" d="M110 336v1057q0 379 421 379q422 0 422 -379v-247h-313v247q0 102 -108 103q-109 0 -109 -103v-1057q0 -102 108 -102q109 0 109 102v391h-143v276h456v-667q0 -378 -422 -378q-421 0 -421 378zM140 336q0 -348 391 -348q392 0 392 348v637h-396v-216h143v-421 q0 -132 -139 -132q-138 0 -138 132v1057q0 133 139 133q138 -1 138 -133v-217h253v217q0 349 -392 349q-391 0 -391 -349v-1057z" />
<glyph unicode="h" horiz-adv-x="1103" d="M130 -15v1759h313v-741h217v741h313v-1759h-313v742h-217v-742h-313zM160 15h253v742h277v-742h253v1699h-253v-741h-277v741h-253v-1699z" />
<glyph unicode="i" horiz-adv-x="578" d="M135 -15v1759h313v-1759h-313zM165 15h253v1699h-253v-1699z" />
<glyph unicode="j" horiz-adv-x="1003" d="M30 336v117h313v-117q0 -102 109 -102q108 0 108 102v1408h313v-1408q0 -378 -421 -378q-422 0 -422 378zM60 336q0 -348 392 -348q391 0 391 348v1378h-253v-1378q0 -132 -138 -132q-139 0 -139 132v87h-253v-87z" />
<glyph unicode="k" horiz-adv-x="1095" d="M130 -15v1759h313v-705l276 705h336l-381 -879l381 -880h-336l-276 705v-705h-313zM160 15h253v833l326 -833h270l-367 850l367 849h-270l-326 -833v833h-253v-1699z" />
<glyph unicode="l" horiz-adv-x="934" d="M130 -15v1759h313v-1483h451v-276h-764zM160 15h704v216h-451v1483h-253v-1699z" />
<glyph unicode="m" horiz-adv-x="1518" d="M130 -15v1759h309l322 -1143l318 1143h309v-1759h-301v864l-215 -864h-216l-222 867v-867h-304zM160 15h244v1075l276 -1075h168l269 1078v-1078h241v1699h-257l-340 -1225l-344 1225h-257v-1699z" />
<glyph unicode="n" horiz-adv-x="1103" d="M130 -15v1759h310l241 -904v900l292 4v-1759h-310l-231 872v-872h-302zM160 15h242v1072l285 -1072h256v1699l-232 -4v-1098l-295 1102h-256v-1699z" />
<glyph unicode="o" horiz-adv-x="1063" d="M110 336v1057q0 379 421 379q422 0 422 -379v-1057q0 -378 -422 -378q-421 0 -421 378zM140 336q0 -348 391 -348q392 0 392 348v1057q0 349 -392 349q-391 0 -391 -349v-1057zM393 336v1057q0 133 139 133q138 -1 138 -133v-1057q0 -132 -139 -132q-138 0 -138 132z M423 336q0 -102 108 -102q109 0 109 102v1057q0 102 -108 103q-109 0 -109 -103v-1057z" />
<glyph unicode="p" horiz-adv-x="1029" d="M130 -15v1759h410q12 -1 17 -1q392 0 392 -377v-261q0 -279 -282 -359q-67 -19 -193 -19h-31v-742h-313zM160 15h253v742h61q122 0 185 17q260 74 260 331v261q0 347 -362 347q-7 0 -19 1h-378v-1699zM413 973v525h115q138 0 138 -132v-261q0 -93 -87 -123q-24 -9 -86 -9 h-80zM443 1003h50q56 0 76 7q67 24 67 95v261q0 102 -108 102h-85v-465z" />
<glyph unicode="q" horiz-adv-x="1063" d="M110 336v1057q0 379 421 379q422 0 422 -379v-1057q0 -337 -309 -371q3 -29 309 -31v-237q-269 0 -366 43q-131 60 -134 221q-343 22 -343 375zM140 336q0 -325 343 -347q3 -169 116 -221q91 -41 324 -41v177q-304 2 -311 87q311 34 311 345v1057q0 349 -392 349 q-391 0 -391 -349v-1057zM393 336v1057q0 133 139 133q138 -1 138 -133v-1057q0 -132 -139 -132q-138 0 -138 132zM423 336q0 -102 108 -102q109 0 109 102v1057q0 102 -108 103q-109 0 -109 -103v-1057z" />
<glyph unicode="r" horiz-adv-x="1081" d="M130 -15v1759h410q12 -1 17 -1q392 0 392 -377v-261q0 -239 -218 -309l320 -811h-343l-254 759l-11 -1v-758h-313zM160 15h253v754l61 9l256 -763h277l-316 799q228 74 228 291v261q0 347 -362 347q-7 0 -19 1h-378v-1699zM413 973v525h115q138 0 138 -132v-261 q0 -93 -87 -123q-24 -9 -86 -9h-80zM443 1003h50q56 0 76 7q67 24 67 95v261q0 102 -108 102h-85v-465z" />
<glyph unicode="s" horiz-adv-x="1063" d="M110 336v248h313v-248q0 -102 109 -102q108 0 108 102v197q0 118 -258 280q-272 172 -272 418v162q0 379 421 379q422 0 422 -379v-247h-313v247q0 102 -108 103q-109 0 -109 -103v-156q0 -108 258 -270q272 -171 272 -412v-219q0 -378 -421 -378q-422 0 -422 378z M140 336q0 -348 392 -348q391 0 391 348v219q0 225 -258 386q-272 172 -272 296v156q0 133 139 133q138 -1 138 -133v-217h253v217q0 349 -392 349q-391 0 -391 -349v-162q0 -230 258 -392q272 -172 272 -306v-197q0 -132 -138 -132q-139 0 -139 132v218h-253v-218z" />
<glyph unicode="t" horiz-adv-x="943" d="M50 1468v276h843v-276h-265v-1483h-313v1483h-265zM80 1498h265v-1483h253v1483h265v216h-783v-216z" />
<glyph unicode="u" horiz-adv-x="1083" d="M120 336v1408h313v-1408q0 -102 108 -102q109 0 109 102v1408h313v-1408q0 -378 -422 -378q-421 0 -421 378zM150 336q0 -348 391 -348q392 0 392 348v1378h-253v-1378q0 -132 -139 -132q-138 0 -138 132v1378h-253v-1378z" />
<glyph unicode="v" horiz-adv-x="1086" d="M40 1744h316l186 -1246l187 1246h316l-94 -630l-201 -1129h-414l-202 1131zM74 1714l90 -594l198 -1105h362l197 1103l90 596h-256l-213 -1418l-212 1418h-256z" />
<glyph unicode="w" horiz-adv-x="1767" d="M40 1744h315l187 -1246l187 1246h307l187 -1246l187 1246h316l-94 -630l-201 -1129h-414l-134 815l-133 -815h-414l-202 1131zM74 1714l90 -594l198 -1105h362l159 971l160 -971h362l197 1103l90 596h-256l-213 -1418l-213 1418h-255l-213 -1418l-213 1418h-255z" />
<glyph unicode="x" horiz-adv-x="1060" d="M40 -15l332 880l-332 879h317l174 -459l173 459h317l-332 -879l332 -880h-317l-173 459l-174 -459h-317zM84 15h253l194 515l193 -515h253l-320 850l320 849h-253l-193 -515l-194 515h-253l320 -849z" />
<glyph unicode="y" horiz-adv-x="1108" d="M40 1744h332l182 -634l182 634h332l-350 -1001l-7 -19v-739h-313v739l-8 19zM82 1714l336 -961l10 -23v-715h253v715l9 23l336 961h-268l-204 -712l-204 712h-268z" />
<glyph unicode="z" horiz-adv-x="910" d="M80 -15v167l379 1316h-366v276h720v-167l-379 -1316h396v-276h-750zM110 15h690v216h-406l389 1350v133h-660v-216h376l-389 -1350v-133z" />
<glyph unicode="{" horiz-adv-x="575" d="M10 850v263q111 3 111 118v567q0 422 424 427v-262q-111 -3 -111 -119v-566q0 -204 -75 -296q75 -93 75 -297v-566q0 -115 111 -118v-263q-424 5 -424 428v566q0 116 -111 118zM40 880q111 -2 111 -148v-566q0 -393 364 -398v203q-111 3 -111 148v566q0 194 -83 297 q83 102 83 296v566q0 146 111 149v202q-364 -5 -364 -397v-567q0 -145 -111 -148v-203z" />
<glyph unicode="|" horiz-adv-x="542" d="M140 -342v2647h262v-2647h-262zM170 -312h202v2587h-202v-2587z" />
<glyph unicode="}" horiz-adv-x="575" d="M30 1q111 3 111 118v566q0 204 75 297q-75 92 -75 296v566q0 116 -111 119v262q424 -5 424 -427v-567q0 -115 111 -118v-263q-111 -2 -111 -118v-566q0 -423 -424 -428v263zM60 -29v-203q364 5 364 398v566q0 146 111 148v203q-111 3 -111 148v567q0 392 -364 397v-202 q111 -3 111 -149v-566q0 -194 83 -296q-83 -103 -83 -297v-566q0 -145 -111 -148z" />
<glyph unicode="~" horiz-adv-x="1142" d="M100 936l62 95q104 161 245 161h10q93 -4 233 -109q64 -48 103 -48q24 0 38 18l72 90l179 -143l-71 -89q-95 -120 -216 -120h-12q-93 4 -231 108q-76 58 -90 60q-3 1 -6 1q-26 0 -60 -53l-63 -97zM142 944l143 -92l45 71q44 67 86 67q7 0 12 -1q20 -4 102 -66 q130 -98 213 -102h12q107 0 192 108l53 67l-133 105l-52 -66q-24 -30 -62 -30q-49 0 -121 54q-132 99 -215 103h-10q-125 0 -219 -147z" />
<glyph unicode="&#xa1;" horiz-adv-x="565" d="M120 -248l21 1462h313l21 -1462h-355zM120 1389v355h355v-355h-355zM150 -218h295l-21 1402h-253zM150 1419h295v295h-295v-295z" />
<glyph unicode="&#xa2;" horiz-adv-x="1113" d="M120 -332l116 381q-111 88 -111 287v1057q0 379 421 379q131 0 206 -31l70 227l171 -11l-97 -317q72 -87 72 -247v-247h-223l-273 -894q19 -18 74 -18q109 0 109 102v248h313v-248q0 -378 -422 -378q-98 0 -159 17l-97 -318zM155 336q0 -185 115 -277l-110 -363l108 -7 l99 322q85 -23 179 -23q392 0 392 348v218h-253v-218q0 -132 -139 -132q-67 0 -108 38l285 934h215v217q0 150 -76 241l91 295l-109 7l-72 -235q-101 41 -226 41q-391 0 -391 -349v-1057zM408 509v884q0 133 139 133q124 -1 137 -113zM438 709l216 706q-9 80 -107 81 q-109 0 -109 -103v-684z" />
<glyph unicode="&#xa3;" horiz-adv-x="1156" d="M60 -15v309h84q109 0 109 119v490h-193v188h193v490q0 428 421 428q422 0 422 -428v-278h-313v278q0 118 -108 118h-2q-107 0 -107 -118v-490h331v-188h-331v-351q0 -181 -49 -258h500v-309h-957zM90 15h897v249h-526q75 115 75 288v381h331v128h-331v520q0 148 137 148 h2q138 0 138 -148v-248h253v248q0 398 -392 398q-391 0 -391 -398v-520h-193v-128h193v-520q0 -149 -139 -149h-54v-249z" />
<glyph unicode="&#xa4;" horiz-adv-x="1440" d="M130 574l174 173q-5 42 -5 101v267q0 49 3 83l-172 173l192 191l101 -100q89 81 297 81t298 -81l101 100l191 -191l-172 -172q4 -35 4 -84v-267q0 -58 -6 -101l174 -173l-191 -192l-111 112q-91 -73 -288 -73t-287 72l-111 -111zM172 574l150 -150l109 109 q102 -82 289 -82t290 83l109 -110l149 150l-164 163q8 55 8 111v267q0 47 -6 94l162 162l-149 149l-99 -100q-104 93 -300 93t-299 -93l-99 100l-150 -149l162 -161q-5 -48 -5 -95v-267q0 -57 7 -111zM582 848v267q0 148 137 148h2q138 -1 138 -148v-267q0 -148 -139 -148 q-138 0 -138 148zM612 848q0 -118 108 -118q109 0 109 118v267q0 117 -108 118h-2q-107 0 -107 -118v-267z" />
<glyph unicode="&#xa5;" horiz-adv-x="1227" d="M100 1977h332l181 -718l181 718h332l-304 -986h210v-188h-262v-129h262v-189h-262v-500h-313v500h-262v189h262v129h-262v188h209zM140 1947l304 -986h-219v-128h262v-189h-262v-129h262v-500h253v500h262v129h-262v189h262v128h-220l304 986h-268l-205 -810l-205 810 h-268z" />
<glyph unicode="&#xa6;" horiz-adv-x="542" d="M140 -15v814h262v-814h-262zM140 971v773h262v-773h-262zM170 15h202v754h-202v-754zM170 1001h202v713h-202v-713z" />
<glyph unicode="&#xa7;" horiz-adv-x="1083" d="M120 908q0 283 171 350q-171 114 -171 380q0 371 418 371q401 0 401 -371v-115h-313v115q0 100 -97 100q-96 0 -96 -100q0 -171 257 -317q273 -154 273 -485q0 -297 -217 -346q217 -134 217 -437q0 -395 -419 -395q-401 0 -401 395v121h313v-121q0 -108 98 -108 q95 0 95 108q0 184 -257 339q-272 164 -272 516zM150 908q0 -336 258 -490q271 -165 271 -365q0 -138 -125 -138q-128 0 -128 138v91h-253v-91q0 -365 371 -365q389 0 389 365q0 287 -265 449q265 61 265 334q0 313 -257 459q-273 154 -273 343q0 130 126 130 q127 0 127 -130v-85h253v85q0 341 -371 341q-388 0 -388 -341q0 -250 205 -388q-205 -79 -205 -342zM386 855v41q0 159 147 159h2q148 -1 148 -159v-41q0 -159 -149 -159q-148 0 -148 159zM416 855q0 -129 118 -129q119 0 119 129v41q0 128 -118 129h-2q-117 0 -117 -129 v-41z" />
<glyph unicode="&#xa8;" horiz-adv-x="929" d="M130 1791v272h272v-272h-272zM160 1821h212v212h-212v-212zM526 1791v272h273v-272h-273zM556 1821h213v212h-213v-212z" />
<glyph unicode="&#xa9;" horiz-adv-x="1493" d="M120 596v801q0 623 626 623q627 0 627 -610v-802q0 -622 -627 -622q-626 0 -626 610zM150 596q0 -580 596 -580q597 0 597 592v802q0 580 -597 580q-596 0 -596 -593v-801zM307 596v801q0 440 440 440q439 0 439 -427v-802q0 -439 -440 -439q-439 0 -439 427zM337 596 q0 -397 409 -397q410 0 410 409v802q0 397 -409 397q-410 0 -410 -410v-801zM463 604v798q0 289 285 289q286 0 286 -289v-92h-219v92q0 73 -66 74q-68 0 -68 -74v-798q0 -74 67 -74t67 74v91h219v-91q0 -290 -286 -290q-285 0 -285 290zM493 604q0 -260 255 -260 q256 0 256 260v61h-159v-61q0 -104 -97 -104t-97 104v798q0 104 98 104q96 -1 96 -104v-62h159v62q0 259 -256 259q-255 0 -255 -259v-798z" />
<glyph unicode="&#xaa;" horiz-adv-x="796" d="M60 910l64 385l135 682h280l134 -681l64 -386h-220l-36 221h-165l-37 -221h-219zM70 506v223h649v-223h-649zM96 940h157l37 221h217l36 -221h158l-58 350l-128 657h-232l-129 -658zM100 536h589v163h-589v-163zM309 1278l89 538l89 -538h-178zM345 1308h106l-53 324z " />
<glyph unicode="&#xab;" horiz-adv-x="1305" d="M130 1002l593 541v-371l-216 -183l216 -177v-361zM174 1002l519 -483v279l-232 191l232 197v289zM619 1002l593 541v-371l-216 -183l216 -177v-361zM663 1002l519 -483v279l-232 191l232 197v289z" />
<glyph unicode="&#xac;" horiz-adv-x="1097" d="M130 850v263h837v-550h-262v287h-575zM160 880h575v-287h202v490h-777v-203z" />
<glyph unicode="&#xad;" horiz-adv-x="816" d="M50 826v263h716v-263h-716zM80 856h656v203h-656v-203z" />
<glyph unicode="&#xae;" horiz-adv-x="1493" d="M120 596v801q0 623 626 623q627 0 627 -610v-802q0 -622 -627 -622q-626 0 -626 610zM150 596q0 -580 596 -580q597 0 597 592v802q0 580 -597 580q-596 0 -596 -593v-801zM307 596v801q0 440 440 440q439 0 439 -427v-802q0 -439 -440 -439q-439 0 -439 427zM337 596 q0 -397 409 -397q410 0 410 409v802q0 397 -409 397q-410 0 -410 -410v-801zM458 335v1336l293 -1h12q266 0 266 -289v-197q0 -137 -85 -181q85 -44 85 -182v-486h-218v486q0 52 -42 69q-12 5 -49 5h-44v-560h-218zM488 365h158v560h74q43 0 61 -7q60 -25 60 -97v-456h158 v456q0 120 -121 182q121 62 121 181v197q0 259 -236 259h-12l-263 1v-1276zM646 1081v404h98q97 0 97 -104v-197q0 -72 -60 -96q-18 -7 -61 -7h-74zM676 1111h44q37 0 49 5q42 16 42 68v197q0 74 -67 74h-68v-344z" />
<glyph unicode="&#xaf;" horiz-adv-x="1238" d="M0 1737v241h1238v-241h-1238zM30 1767h1178v181h-1178v-181z" />
<glyph unicode="&#xb0;" horiz-adv-x="907" d="M130 1741q0 323 323 323q324 0 324 -323q0 -324 -324 -324q-323 0 -323 324zM160 1741q0 -294 293 -294q294 0 294 294q0 293 -294 293q-293 0 -293 -293zM313 1741q0 140 140 140q141 0 141 -140q0 -141 -141 -141q-140 0 -140 141zM343 1741q0 -111 110 -111 q111 0 111 111q0 110 -111 110q-110 0 -110 -110z" />
<glyph unicode="&#xb1;" horiz-adv-x="1077" d="M120 145v242h835v-242h-835zM120 850v263h288v287h262v-287h287v-263h-287v-287h-262v287h-288zM150 175h775v182h-775v-182zM150 880h288v-287h202v287h287v203h-287v287h-202v-287h-288v-203z" />
<glyph unicode="&#xb2;" horiz-adv-x="704" d="M100 816v261q0 162 160 277q148 106 149 175v224q0 63 -56 63h-1q-57 0 -57 -63v-168h-195v168q0 256 252 256t252 -256v-228q0 -166 -161 -281q-148 -106 -148 -181v-54h309v-193h-504zM130 846h444v133h-309v84q0 91 160 205q149 107 149 257v228q0 226 -222 226 t-222 -226v-138h135v138q0 93 87 93h1q86 0 86 -93v-224q-1 -85 -161 -199q-148 -107 -148 -253v-231z" />
<glyph unicode="&#xb3;" horiz-adv-x="709" d="M100 1051v170h195v-171q0 -65 59 -65q60 0 60 65v211q0 53 -17 61q-12 5 -38 5h-72v194h85q19 0 27 5q15 9 15 58v172q0 53 -17 61q-12 5 -40 5q-7 0 -16 -1q-46 -2 -46 -65v-169h-195v170q0 177 105 231q71 37 146 37q69 0 141 -32q117 -50 117 -236v-174 q0 -123 -73 -161q73 -38 73 -161v-210q0 -159 -84 -218q-53 -38 -162 -41h-14q-96 0 -151 32q-98 56 -98 227zM130 1051q0 -153 84 -201q47 -28 135 -28h14q99 3 144 35q72 51 72 194v210q0 105 -109 161q109 56 109 161v174q0 166 -99 208q-66 30 -129 30q-67 0 -132 -33 q-89 -46 -89 -205v-140h135v139q0 93 74 95q9 1 18 1q34 0 52 -7q35 -16 35 -89v-172q0 -67 -29 -84q-16 -9 -43 -9h-55v-134h42q32 0 50 -7q35 -16 35 -89v-211q0 -95 -90 -95q-89 0 -89 95v141h-135v-140z" />
<glyph unicode="&#xb4;" horiz-adv-x="809" d="M130 1790l306 283h243v-99l-285 -184h-264zM206 1820h180l263 170v53h-201z" />
<glyph unicode="&#xb5;" horiz-adv-x="1093" d="M130 -342v1992h313v-1270q0 -117 108 -117q109 0 109 118v1269h313v-1269q0 -386 -332 -423q-20 -2 -39 -2q-97 0 -159 40v-338h-313zM160 -312h253v364q100 -66 189 -66q17 0 35 2q306 33 306 393v1239h-253v-1239q0 -148 -139 -148q-138 0 -138 147v1240h-253v-1932z " />
<glyph unicode="&#xb6;" horiz-adv-x="1200" d="M100 1310v354q0 206 77 267q59 47 253 47h640v-1993h-231v1762h-193v-1762h-231v1021q-184 0 -240 42q-75 57 -75 262zM130 1310q0 -191 63 -238q48 -36 252 -36v-1021h171v1762h253v-1762h171v1933h-610q-184 0 -235 -41q-65 -51 -65 -243v-354z" />
<glyph unicode="&#xb7;" horiz-adv-x="508" d="M117 704v302h302v-302h-302zM142 730h251v250h-251v-250z" />
<glyph unicode="&#xb8;" horiz-adv-x="666" d="M177 -170l37 186h154l-25 -70q6 3 42 3t66 -23q34 -24 34 -82v-99q0 -99 -116 -108q-16 -2 -36 -2q-11 0 -21 1q-133 3 -133 109v44h148v-44h10v99q0 3 -3 3h-2q-7 0 -14 -17h-141zM209 -241v-14q0 -76 105 -79q10 -1 19 -1q18 0 32 2q90 7 90 78v99q0 42 -22 58 q-22 17 -48 17q-28 0 -96 -37l37 104h-88l-25 -126h85q7 17 34 17h2q33 -2 33 -33v-99q0 -30 -35 -30t-35 30v14h-88z" />
<glyph unicode="&#xb9;" horiz-adv-x="1103" d="M130 815v191h153v780h-153v191h346v-971h153v-191h-499zM160 845h439v131h-153v971h-286v-131h153v-840h-153v-131z" />
<glyph unicode="&#xba;" horiz-adv-x="807" d="M120 1110v634q0 233 283 233q284 0 284 -233v-634q0 -233 -284 -233q-283 0 -283 233zM130 491v205h546v-205h-546zM150 1110q0 -203 253 -203q254 0 254 203v634q0 203 -254 203q-253 0 -253 -203v-634zM160 521h486v145h-486v-145zM307 1110v634q0 86 97 86 q96 -1 96 -86v-634q0 -86 -97 -86q-96 0 -96 86zM337 1110q0 -56 66 -56q67 0 67 56v634q0 55 -66 56q-67 0 -67 -56v-634z" />
<glyph unicode="&#xbb;" horiz-adv-x="1305" d="M130 451v361l216 177l-216 183v371l593 -541zM160 519l519 483l-519 473v-289l232 -197l-232 -191v-279zM619 451v361l216 177l-216 183v371l593 -541zM649 519l519 483l-519 473v-289l232 -197l-232 -191v-279z" />
<glyph unicode="&#xbc;" horiz-adv-x="1639" d="M120 815v191h153v780h-153v191h346v-971h153v-191h-499zM150 845h439v131h-153v971h-286v-131h153v-840h-153v-131zM432 -15l735 1993h206l-733 -1993h-208zM476 15h144l711 1933h-144zM955 261v160l289 719h232v-689h63v-190h-63v-276h-192v276h-329zM985 291h329v-276 h132v276h63v130h-63v689h-182l-279 -695v-124zM1108 421l206 523v-523h-206zM1152 451h132v335z" />
<glyph unicode="&#xbd;" horiz-adv-x="1715" d="M60 815v191h153v780h-153v191h346v-971h153v-191h-499zM90 845h439v131h-153v971h-286v-131h153v-840h-153v-131zM372 -15l735 1993h206l-733 -1993h-208zM416 15h144l711 1933h-144zM1111 -15v261q0 162 160 277q148 106 149 175v224q0 63 -56 63h-1q-57 0 -57 -63v-168 h-195v168q0 256 252 256t252 -256v-228q0 -166 -161 -281q-148 -106 -148 -181v-54h309v-193h-504zM1141 15h444v133h-309v84q0 91 160 205q149 107 149 257v228q0 226 -222 226t-222 -226v-138h135v138q0 93 87 93h1q86 0 86 -93v-224q-1 -85 -161 -199 q-148 -107 -148 -253v-231z" />
<glyph unicode="&#xbe;" horiz-adv-x="1579" d="M100 1051v170h195v-171q0 -65 59 -65q60 0 60 65v211q0 53 -17 61q-12 5 -38 5h-72v194h85q19 0 27 5q15 9 15 58v172q0 53 -17 61q-12 5 -40 5q-7 0 -16 -1q-46 -2 -46 -65v-169h-195v170q0 177 105 231q71 37 146 37q69 0 141 -32q117 -50 117 -236v-174 q0 -123 -73 -161q73 -38 73 -161v-210q0 -159 -84 -218q-53 -38 -162 -41h-14q-96 0 -151 32q-98 56 -98 227zM130 1051q0 -153 84 -201q47 -28 135 -28h14q99 3 144 35q72 51 72 194v210q0 105 -109 161q109 56 109 161v174q0 166 -99 208q-66 30 -129 30q-67 0 -132 -33 q-89 -46 -89 -205v-140h135v139q0 93 74 95q9 1 18 1q34 0 52 -7q35 -16 35 -89v-172q0 -67 -29 -84q-16 -9 -43 -9h-55v-134h42q32 0 50 -7q35 -16 35 -89v-211q0 -95 -90 -95q-89 0 -89 95v141h-135v-140zM372 -15l735 1993h206l-733 -1993h-208zM416 15h144l711 1933 h-144zM895 261v160l289 719h232v-689h63v-190h-63v-276h-192v276h-329zM925 291h329v-276h132v276h63v130h-63v689h-182l-279 -695v-124zM1048 421l206 523v-523h-206zM1092 451h132v335z" />
<glyph unicode="&#xbf;" d="M120 148v197q0 255 203 458q195 193 195 334v60h313v-84q0 -251 -203 -453q-195 -192 -195 -322v-190q0 -118 107 -118h2q108 0 108 118v278h313v-278q0 -428 -422 -428q-421 0 -421 428zM150 148q0 -398 391 -398q392 0 392 398v248h-253v-248q0 -148 -138 -148h-2 q-137 0 -137 148v190q0 142 203 344q195 192 195 431v54h-253v-30q0 -153 -203 -356q-195 -193 -195 -436v-197zM492 1389v355h355v-355h-355zM522 1419h295v295h-295v-295z" />
<glyph unicode="&#xc0;" horiz-adv-x="1091" d="M60 -15l94 710l202 1282h414l201 -1279l94 -713h-316l-55 416h-263l-56 -416h-315zM94 15h255l56 416h315l55 -416h256l-90 679l-197 1253h-362l-198 -1256zM217 2207v99h243l306 -283h-264zM247 2223l263 -170h180l-242 223h-201v-53zM437 681l125 945l125 -945h-250z M471 711h182l-91 687z" />
<glyph unicode="&#xc1;" horiz-adv-x="1091" d="M60 -15l94 710l202 1282h414l201 -1279l94 -713h-316l-55 416h-263l-56 -416h-315zM94 15h255l56 416h315l55 -416h256l-90 679l-197 1253h-362l-198 -1256zM359 2023l306 283h243v-99l-285 -184h-264zM435 2053h180l263 170v53h-201zM437 681l125 945l125 -945h-250z M471 711h182l-91 687z" />
<glyph unicode="&#xc2;" horiz-adv-x="1091" d="M60 -15l94 710l202 1282h414l201 -1279l94 -713h-316l-55 416h-263l-56 -416h-315zM94 15h255l56 416h315l55 -416h256l-90 679l-197 1253h-362l-198 -1256zM137 2024l287 282h276l289 -282h-296l-131 90l-130 -90h-295zM211 2054h211l140 96l141 -96h212l-227 222h-252z M437 681l125 945l125 -945h-250zM471 711h182l-91 687z" />
<glyph unicode="&#xc3;" horiz-adv-x="1091" d="M60 -15l94 710l202 1282h414l201 -1279l94 -713h-316l-55 416h-263l-56 -416h-315zM94 15h255l56 416h315l55 -416h256l-90 679l-197 1253h-362l-198 -1256zM199 2073l42 84q70 142 187 149h7q71 0 181 -68q47 -30 76 -30q20 0 30 16l49 80l155 -102l-48 -81 q-68 -109 -171 -114h-7q-71 0 -179 68q-63 40 -72 41h-3q-19 0 -42 -46l-41 -85zM239 2085l110 -58l29 57q31 62 68 62h5q17 -3 86 -45q100 -64 163 -64h7q85 5 145 100l34 55l-105 70l-33 -54q-20 -30 -56 -30q-37 0 -92 34q-102 64 -165 64h-7q-97 -5 -161 -133zM437 681 l125 945l125 -945h-250zM471 711h182l-91 687z" />
<glyph unicode="&#xc4;" horiz-adv-x="1091" d="M60 -15l94 710l202 1282h414l201 -1279l94 -713h-316l-55 416h-263l-56 -416h-315zM94 15h255l56 416h315l55 -416h256l-90 679l-197 1253h-362l-198 -1256zM228 2024v272h272v-272h-272zM258 2054h212v212h-212v-212zM437 681l125 945l125 -945h-250zM471 711h182 l-91 687zM624 2024v272h273v-272h-273zM654 2054h213v212h-213v-212z" />
<glyph unicode="&#xc5;" horiz-adv-x="1125" d="M60 -15l94 710l202 1282h13q-20 28 -20 117q0 213 213 213q214 0 214 -213q0 -89 -20 -117h14l201 -1279l94 -713h-316l-55 416h-263l-56 -416h-315zM94 15h255l56 416h315l55 -416h256l-90 679l-197 1253h-48q50 68 50 147q0 183 -184 183q-183 0 -183 -183 q0 -79 50 -147h-47l-198 -1256zM437 681l125 945l125 -945h-250zM467 2094q0 95 95 95q96 0 96 -95q0 -96 -96 -96q-95 0 -95 96zM471 711h182l-91 687zM497 2094q0 -66 65 -66q66 0 66 66q0 65 -66 65q-65 0 -65 -65z" />
<glyph unicode="&#xc6;" horiz-adv-x="1510" d="M60 -15l94 710l202 1282h961v-309h-451v-532h388v-310h-388v-532h451v-309h-764v416h-122l-56 -416h-315zM94 15h255l56 416h178v-416h704v249h-451v592h388v250h-388v592h451v249h-905l-198 -1256zM437 681l102 694h44v-694h-146zM471 711h82v567z" />
<glyph unicode="&#xc7;" horiz-adv-x="1073" d="M120 381v1200q0 427 421 427q422 0 422 -427v-279h-313v279q0 117 -108 118h-2q-107 0 -107 -118v-1200q0 -118 108 -118q109 0 109 118v279h313v-279q0 -403 -366 -426l-3 -9q5 3 41 3t67 -23q34 -24 34 -82v-99q0 -99 -117 -108q-15 -2 -36 -2q-10 0 -21 1 q-132 3 -132 109v44h148v-44h10v99q0 3 -4 3h-1q-7 0 -14 -17h-142l26 128q-333 33 -333 423zM150 381q0 -362 339 -397l-26 -124h86q7 17 34 17h1q34 -2 34 -33v-99q0 -30 -35 -30t-35 30v14h-88v-14q0 -76 104 -79q11 -1 19 -1q19 0 32 2q91 7 91 78v99q0 42 -22 58 q-23 17 -49 17q-28 0 -97 -37l37 101q358 23 358 398v249h-253v-249q0 -148 -139 -148q-138 0 -138 148v1200q0 148 137 148h2q138 -1 138 -148v-249h253v249q0 397 -392 397q-391 0 -391 -397v-1200z" />
<glyph unicode="&#xc8;" horiz-adv-x="944" d="M130 -15v1992h764v-309h-451v-532h388v-310h-388v-532h451v-309h-764zM160 15h704v249h-451v592h388v250h-388v592h451v249h-704v-1932zM166 2207v99h243l306 -283h-264zM196 2223l263 -170h180l-242 223h-201v-53z" />
<glyph unicode="&#xc9;" horiz-adv-x="944" d="M130 -15v1992h764v-309h-451v-532h388v-310h-388v-532h451v-309h-764zM160 15h704v249h-451v592h388v250h-388v592h451v249h-704v-1932zM309 2023l306 283h243v-99l-285 -184h-264zM385 2053h180l263 170v53h-201z" />
<glyph unicode="&#xca;" horiz-adv-x="944" d="M108 2024l287 282h276l289 -282h-296l-131 90l-130 -90h-295zM152 -15v1992h764v-309h-451v-532h388v-310h-388v-532h451v-309h-764zM182 15h704v249h-451v592h388v250h-388v592h451v249h-704v-1932zM182 2054h211l140 96l141 -96h212l-227 222h-252z" />
<glyph unicode="&#xcb;" horiz-adv-x="944" d="M130 -15v1992h764v-309h-451v-532h388v-310h-388v-532h451v-309h-764zM160 15h704v249h-451v592h388v250h-388v592h451v249h-704v-1932zM178 2024v272h272v-272h-272zM208 2054h212v212h-212v-212zM574 2024v272h273v-272h-273zM604 2054h213v212h-213v-212z" />
<glyph unicode="&#xcc;" horiz-adv-x="553" d="M-54 2207v99h243l306 -283h-264zM-24 2223l263 -170h180l-242 223h-201v-53zM135 -15v1992h313v-1992h-313zM165 15h253v1932h-253v-1932z" />
<glyph unicode="&#xcd;" horiz-adv-x="553" d="M111 2023l306 283h243v-99l-285 -184h-264zM158 -15v1992h313v-1992h-313zM187 2053h180l263 170v53h-201zM188 15h253v1932h-253v-1932z" />
<glyph unicode="&#xce;" horiz-adv-x="553" d="M-112 2024l287 282h276l289 -282h-296l-131 90l-130 -90h-295zM-38 2054h211l140 96l141 -96h212l-227 222h-252zM158 -15v1992h313v-1992h-313zM188 15h253v1932h-253v-1932z" />
<glyph unicode="&#xcf;" horiz-adv-x="553" d="M-43 2024v272h272v-272h-272zM-13 2054h212v212h-212v-212zM135 -15v1992h313v-1992h-313zM165 15h253v1932h-253v-1932zM353 2024v272h273v-272h-273zM383 2054h213v212h-213v-212z" />
<glyph unicode="&#xd0;" horiz-adv-x="1145" d="M58 861v241h124v875l451 -1q392 0 392 -427v-1137q0 -426 -392 -426q-5 0 -17 -1h-434v876h-124zM88 891h124v-876h402q12 1 19 1q362 0 362 396v1137q0 397 -362 397l-421 1v-875h-124v-181zM465 264v627h98v181h-98v626h139q138 0 138 -149v-1137q0 -148 -138 -148 h-139zM495 294h109q108 0 108 118v1137q0 119 -108 119h-109v-566h98v-241h-98v-567z" />
<glyph unicode="&#xd1;" horiz-adv-x="1073" d="M130 -15v1992h310l241 -1024v1019l292 5v-1992h-310l-231 987v-987h-302zM160 15h242v1217l285 -1217h256v1932l-232 -5v-1247l-295 1252h-256v-1932zM188 2073l42 84q70 142 187 149h7q71 0 181 -68q47 -30 76 -30q20 0 30 16l49 80l155 -102l-48 -81 q-68 -109 -171 -114h-7q-71 0 -179 68q-63 40 -72 41h-3q-19 0 -42 -46l-41 -85zM228 2085l110 -58l29 57q31 62 68 62h5q17 -3 86 -45q100 -64 163 -64h7q85 5 145 100l34 55l-105 70l-33 -54q-20 -30 -56 -30q-37 0 -92 34q-102 64 -165 64h-7q-97 -5 -161 -133z" />
<glyph unicode="&#xd2;" d="M120 381v1200q0 427 421 427q422 0 422 -427v-1200q0 -427 -422 -428q-421 0 -421 428zM150 381q0 -398 391 -398q392 1 392 398v1200q0 397 -392 397q-391 0 -391 -397v-1200zM196 2207v99h243l306 -283h-264zM226 2223l263 -170h180l-242 223h-201v-53zM403 381v1200 q0 148 137 148h2q138 -1 138 -148v-1200q0 -148 -139 -148q-138 0 -138 148zM433 381q0 -118 108 -118q109 0 109 118v1200q0 117 -108 118h-2q-107 0 -107 -118v-1200z" />
<glyph unicode="&#xd3;" d="M120 381v1200q0 427 421 427q422 0 422 -427v-1200q0 -427 -422 -428q-421 0 -421 428zM150 381q0 -398 391 -398q392 1 392 398v1200q0 397 -392 397q-391 0 -391 -397v-1200zM338 2023l306 283h243v-99l-285 -184h-264zM403 381v1200q0 148 137 148h2q138 -1 138 -148 v-1200q0 -148 -139 -148q-138 0 -138 148zM414 2053h180l263 170v53h-201zM433 381q0 -118 108 -118q109 0 109 118v1200q0 117 -108 118h-2q-107 0 -107 -118v-1200z" />
<glyph unicode="&#xd4;" d="M120 2024l287 282h276l289 -282h-296l-131 90l-130 -90h-295zM124 381v1200q0 427 421 427q422 0 422 -427v-1200q0 -427 -422 -428q-421 0 -421 428zM154 381q0 -398 391 -398q392 1 392 398v1200q0 397 -392 397q-391 0 -391 -397v-1200zM194 2054h211l140 96l141 -96 h212l-227 222h-252zM407 381v1200q0 148 137 148h2q138 -1 138 -148v-1200q0 -148 -139 -148q-138 0 -138 148zM437 381q0 -118 108 -118q109 0 109 118v1200q0 117 -108 118h-2q-107 0 -107 -118v-1200z" />
<glyph unicode="&#xd5;" d="M120 381v1200q0 427 421 427q422 0 422 -427v-1200q0 -427 -422 -428q-421 0 -421 428zM150 381q0 -398 391 -398q392 1 392 398v1200q0 397 -392 397q-391 0 -391 -397v-1200zM178 2073l42 84q70 142 187 149h7q71 0 181 -68q47 -30 76 -30q20 0 30 16l49 80l155 -102 l-48 -81q-68 -109 -171 -114h-7q-71 0 -179 68q-63 40 -72 41h-3q-19 0 -42 -46l-41 -85zM218 2085l110 -58l29 57q31 62 68 62h5q17 -3 86 -45q100 -64 163 -64h7q85 5 145 100l34 55l-105 70l-33 -54q-20 -30 -56 -30q-37 0 -92 34q-102 64 -165 64h-7q-97 -5 -161 -133z M403 381v1200q0 148 137 148h2q138 -1 138 -148v-1200q0 -148 -139 -148q-138 0 -138 148zM433 381q0 -118 108 -118q109 0 109 118v1200q0 117 -108 118h-2q-107 0 -107 -118v-1200z" />
<glyph unicode="&#xd6;" d="M120 381v1200q0 427 421 427q422 0 422 -427v-1200q0 -427 -422 -428q-421 0 -421 428zM150 381q0 -398 391 -398q392 1 392 398v1200q0 397 -392 397q-391 0 -391 -397v-1200zM207 2024v272h272v-272h-272zM237 2054h212v212h-212v-212zM403 381v1200q0 148 137 148h2 q138 -1 138 -148v-1200q0 -148 -139 -148q-138 0 -138 148zM433 381q0 -118 108 -118q109 0 109 118v1200q0 117 -108 118h-2q-107 0 -107 -118v-1200zM603 2024v272h273v-272h-273zM633 2054h213v212h-213v-212z" />
<glyph unicode="&#xd7;" horiz-adv-x="1089" d="M156 779l204 203l-203 203l185 185l203 -203l203 203l185 -186l-203 -202l203 -203l-185 -185l-203 202l-203 -203zM198 779l144 -144l203 203l203 -202l143 143l-203 203l203 202l-143 144l-203 -203l-203 203l-143 -143l203 -203z" />
<glyph unicode="&#xd8;" horiz-adv-x="1083" d="M120 381v1200q0 427 421 427q90 0 145 -15l30 123h172l-48 -199q123 -101 123 -336v-1200q0 -427 -422 -428q-108 0 -171 22l-48 -196h-171l69 287q-100 102 -100 315zM150 381q0 -201 104 -305l-65 -267h109l50 206q91 -32 193 -32q392 1 392 398v1200q0 221 -127 324 l44 181h-110l-32 -131q-81 23 -167 23q-391 0 -391 -397v-1200zM403 693v888q0 148 137 148h2q61 0 103 -37zM417 301l263 1083v-1003q0 -148 -139 -148q-88 0 -124 68zM433 945l178 737q-20 17 -69 17h-2q-107 0 -107 -118v-636zM449 305q22 -42 92 -42q109 0 109 118v753z " />
<glyph unicode="&#xd9;" d="M120 381v1596h313v-1596q0 -118 108 -118q109 0 109 118v1596h313v-1596q0 -427 -422 -428q-421 0 -421 428zM150 381q0 -398 391 -398q392 1 392 398v1566h-253v-1566q0 -148 -139 -148q-138 0 -138 148v1566h-253v-1566zM196 2207v99h243l306 -283h-264zM226 2223 l263 -170h180l-242 223h-201v-53z" />
<glyph unicode="&#xda;" d="M120 381v1596h313v-1596q0 -118 108 -118q109 0 109 118v1596h313v-1596q0 -427 -422 -428q-421 0 -421 428zM150 381q0 -398 391 -398q392 1 392 398v1566h-253v-1566q0 -148 -139 -148q-138 0 -138 148v1566h-253v-1566zM338 2023l306 283h243v-99l-285 -184h-264z M414 2053h180l263 170v53h-201z" />
<glyph unicode="&#xdb;" d="M120 2024l287 282h276l289 -282h-296l-131 90l-130 -90h-295zM124 381v1596h313v-1596q0 -118 108 -118q109 0 109 118v1596h313v-1596q0 -427 -422 -428q-421 0 -421 428zM154 381q0 -398 391 -398q392 1 392 398v1566h-253v-1566q0 -148 -139 -148q-138 0 -138 148 v1566h-253v-1566zM194 2054h211l140 96l141 -96h212l-227 222h-252z" />
<glyph unicode="&#xdc;" d="M120 381v1596h313v-1596q0 -118 108 -118q109 0 109 118v1596h313v-1596q0 -427 -422 -428q-421 0 -421 428zM150 381q0 -398 391 -398q392 1 392 398v1566h-253v-1566q0 -148 -139 -148q-138 0 -138 148v1566h-253v-1566zM207 2024v272h272v-272h-272zM237 2054h212v212 h-212v-212zM603 2024v272h273v-272h-273zM633 2054h213v212h-213v-212z" />
<glyph unicode="&#xdd;" horiz-adv-x="1106" d="M60 1977h332l181 -719l181 719h332l-349 -1133l-7 -21v-838h-313v837l-8 22zM100 1947l337 -1093l10 -26v-813h253v812l9 27l337 1093h-268l-205 -811l-205 811h-268zM370 2023l306 283h243v-99l-285 -184h-264zM446 2053h180l263 170v53h-201z" />
<glyph unicode="&#xde;" horiz-adv-x="1048" d="M130 -342v2319h313v-327h77q7 0 19 -1h18q391 0 391 -427v-295q0 -315 -280 -406q-69 -22 -195 -22h-30v-841h-313zM160 -312h253v841h60q122 0 185 20q260 85 260 378v295q0 397 -361 397h-20q-12 1 -17 1h-107v327h-253v-2259zM413 778v593h114q138 0 138 -149v-295 q0 -104 -85 -139q-26 -10 -88 -10h-79zM443 808h49q56 0 76 8q67 27 67 111v295q0 119 -108 119h-84v-533z" />
<glyph unicode="&#xdf;" horiz-adv-x="1083" d="M130 -15v1565q0 427 421 427q422 0 422 -427v-296q0 -202 -138 -273q138 -70 138 -273v-508q0 -426 -392 -426l-43 -2v310q122 0 122 118v508q0 84 -68 111q-20 8 -76 8h-73v-842h-313zM160 15h253v842h103q62 0 88 -10q86 -35 86 -139v-508q0 -148 -122 -148v-248h13 q362 0 362 396v508q0 185 -174 273q174 89 174 273v296q0 397 -392 397q-391 0 -391 -397v-1535zM413 1106v444q0 148 137 148h2q138 -1 138 -148v-296q0 -104 -87 -138q-25 -10 -87 -10h-103zM443 1136h73q56 0 77 8q67 26 67 110v296q0 117 -108 118h-2q-107 0 -107 -118 v-414z" />
<glyph unicode="&#xe0;" horiz-adv-x="1091" d="M60 -15l94 628l202 1131h414l201 -1128l94 -631h-316l-55 368h-263l-56 -368h-315zM94 15h255l56 368h315l55 -368h256l-90 597l-197 1102h-362l-198 -1105zM217 1974v99h243l306 -283h-264zM247 1990l263 -170h180l-242 223h-201v-53zM437 599l125 834l125 -834h-250z M471 629h182l-91 602z" />
<glyph unicode="&#xe1;" horiz-adv-x="1091" d="M60 -15l94 628l202 1131h414l201 -1128l94 -631h-316l-55 368h-263l-56 -368h-315zM94 15h255l56 368h315l55 -368h256l-90 597l-197 1102h-362l-198 -1105zM359 1790l306 283h243v-99l-285 -184h-264zM435 1820h180l263 170v53h-201zM437 599l125 834l125 -834h-250z M471 629h182l-91 602z" />
<glyph unicode="&#xe2;" horiz-adv-x="1091" d="M60 -15l94 628l202 1131h414l201 -1128l94 -631h-316l-55 368h-263l-56 -368h-315zM94 15h255l56 368h315l55 -368h256l-90 597l-197 1102h-362l-198 -1105zM137 1791l287 282h276l289 -282h-296l-131 90l-130 -90h-295zM211 1821h211l140 96l141 -96h212l-227 222h-252z M437 599l125 834l125 -834h-250zM471 629h182l-91 602z" />
<glyph unicode="&#xe3;" horiz-adv-x="1091" d="M60 -15l94 628l202 1131h414l201 -1128l94 -631h-316l-55 368h-263l-56 -368h-315zM94 15h255l56 368h315l55 -368h256l-90 597l-197 1102h-362l-198 -1105zM199 1840l42 84q70 142 187 149h7q71 0 181 -68q47 -30 76 -30q20 0 30 16l49 80l155 -102l-48 -81 q-68 -109 -171 -114h-7q-71 0 -179 68q-63 40 -72 41h-3q-19 0 -42 -46l-41 -85zM239 1852l110 -58l29 57q31 62 68 62h5q17 -3 86 -45q100 -64 163 -64h7q85 5 145 100l34 55l-105 70l-33 -54q-20 -30 -56 -30q-37 0 -92 34q-102 64 -165 64h-7q-97 -5 -161 -133zM437 599 l125 834l125 -834h-250zM471 629h182l-91 602z" />
<glyph unicode="&#xe4;" horiz-adv-x="1091" d="M60 -15l94 628l202 1131h414l201 -1128l94 -631h-316l-55 368h-263l-56 -368h-315zM94 15h255l56 368h315l55 -368h256l-90 597l-197 1102h-362l-198 -1105zM228 1791v272h272v-272h-272zM258 1821h212v212h-212v-212zM437 599l125 834l125 -834h-250zM471 629h182 l-91 602zM624 1791v272h273v-272h-273zM654 1821h213v212h-213v-212z" />
<glyph unicode="&#xe5;" horiz-adv-x="1126" d="M60 -15l94 628l202 1131h13q-20 28 -20 117q0 213 213 213q214 0 214 -213q0 -89 -20 -117h14l201 -1128l94 -631h-316l-55 368h-263l-56 -368h-315zM94 15h255l56 368h315l55 -368h256l-90 597l-197 1102h-48q50 68 50 147q0 183 -184 183q-183 0 -183 -183 q0 -79 50 -147h-47l-198 -1105zM437 599l125 834l125 -834h-250zM467 1861q0 95 95 95q96 0 96 -95q0 -96 -96 -96q-95 0 -95 96zM471 629h182l-91 602zM497 1861q0 -66 65 -66q66 0 66 66q0 65 -66 65q-65 0 -65 -65z" />
<glyph unicode="&#xe6;" horiz-adv-x="1600" d="M60 -15l94 628l202 1131h962v-276h-451v-465h388v-276h-388v-466h451v-276h-764v368h-123l-56 -368h-315zM94 15h255l56 368h179v-368h704v216h-451v526h388v216h-388v525h451v216h-906l-198 -1105zM437 599l111 802h36v-802h-147zM471 629h83v655z" />
<glyph unicode="&#xe7;" horiz-adv-x="1073" d="M120 336v1057q0 379 421 379q422 0 422 -379v-247h-313v247q0 102 -108 103q-109 0 -109 -103v-1057q0 -102 108 -102q109 0 109 102v248h313v-248q0 -375 -405 -378l-5 -12q6 3 42 3t66 -23q34 -24 34 -82v-99q0 -99 -116 -108q-16 -2 -36 -2q-11 0 -21 1 q-133 3 -133 109v44h148v-44h10v99q0 3 -3 3h-2q-7 0 -14 -17h-141l27 139q-294 44 -294 367zM150 336q0 -297 300 -343l-27 -133h85q7 17 34 17h2q33 -2 33 -33v-99q0 -30 -35 -30t-35 30v14h-88v-14q0 -76 105 -79q10 -1 19 -1q18 0 32 2q90 7 90 78v99q0 42 -22 58 q-22 17 -48 17q-28 0 -96 -37l37 106q397 3 397 348v218h-253v-218q0 -132 -139 -132q-138 0 -138 132v1057q0 133 139 133q138 -1 138 -133v-217h253v217q0 349 -392 349q-391 0 -391 -349v-1057z" />
<glyph unicode="&#xe8;" horiz-adv-x="924" d="M130 -15v1759h764v-276h-451v-465h388v-276h-388v-466h451v-276h-764zM160 15h704v216h-451v526h388v216h-388v525h451v216h-704v-1699zM166 1974v99h243l306 -283h-264zM196 1990l263 -170h180l-242 223h-201v-53z" />
<glyph unicode="&#xe9;" horiz-adv-x="924" d="M130 -15v1759h764v-276h-451v-465h388v-276h-388v-466h451v-276h-764zM160 15h704v216h-451v526h388v216h-388v525h451v216h-704v-1699zM309 1790l306 283h243v-99l-285 -184h-264zM385 1820h180l263 170v53h-201z" />
<glyph unicode="&#xea;" horiz-adv-x="924" d="M108 1791l287 282h276l289 -282h-296l-131 90l-130 -90h-295zM152 -15v1759h764v-276h-451v-465h388v-276h-388v-466h451v-276h-764zM182 15h704v216h-451v526h388v216h-388v525h451v216h-704v-1699zM182 1821h211l140 96l141 -96h212l-227 222h-252z" />
<glyph unicode="&#xeb;" horiz-adv-x="924" d="M130 -15v1759h764v-276h-451v-465h388v-276h-388v-466h451v-276h-764zM160 15h704v216h-451v526h388v216h-388v525h451v216h-704v-1699zM178 1791v272h272v-272h-272zM208 1821h212v212h-212v-212zM574 1791v272h273v-272h-273zM604 1821h213v212h-213v-212z" />
<glyph unicode="&#xec;" horiz-adv-x="514" d="M-54 1974v99h243l306 -283h-264zM-24 1990l263 -170h180l-242 223h-201v-53zM135 -15v1759h313v-1759h-313zM165 15h253v1699h-253v-1699z" />
<glyph unicode="&#xed;" horiz-adv-x="514" d="M111 1790l306 283h243v-99l-285 -184h-264zM158 -15v1759h313v-1759h-313zM187 1820h180l263 170v53h-201zM188 15h253v1699h-253v-1699z" />
<glyph unicode="&#xee;" horiz-adv-x="514" d="M-112 1791l287 282h276l289 -282h-296l-131 90l-130 -90h-295zM-38 1821h211l140 96l141 -96h212l-227 222h-252zM158 -15v1759h313v-1759h-313zM188 15h253v1699h-253v-1699z" />
<glyph unicode="&#xef;" horiz-adv-x="514" d="M-43 1791v272h272v-272h-272zM-13 1821h212v212h-212v-212zM135 -15v1759h313v-1759h-313zM165 15h253v1699h-253v-1699zM353 1791v272h273v-272h-273zM383 1821h213v212h-213v-212z" />
<glyph unicode="&#xf0;" horiz-adv-x="1083" d="M120 413v365q0 407 366 407q110 0 164 -43q0 213 -84 345l-214 -179l-157 187l196 164q-43 27 -168 75l77 250q220 -65 318 -134l170 142l156 -187l-149 -125q168 -224 168 -628v-639q0 -428 -421 -428q-422 0 -422 428zM150 413q0 -398 392 -398q391 0 391 398v639 q0 394 -180 632l149 125l-118 141l-164 -138q-114 79 -300 134l-61 -194q103 -40 182 -89l-204 -172l119 -141l216 183q108 -170 108 -453q-94 75 -194 75q-336 0 -336 -377v-365zM403 413v365q0 115 53 138q26 11 82 11q13 0 29 -1q113 -5 113 -148v-365q0 -148 -138 -148 q-139 0 -139 148zM433 413q0 -118 109 -118q108 0 108 118v365q0 115 -85 118q-14 1 -27 1q-50 0 -70 -9q-35 -15 -35 -110v-365z" />
<glyph unicode="&#xf1;" horiz-adv-x="1073" d="M130 -15v1759h310l241 -904v900l292 4v-1759h-310l-231 872v-872h-302zM160 15h242v1072l285 -1072h256v1699l-232 -4v-1098l-295 1102h-256v-1699zM188 1840l42 84q70 142 187 149h7q71 0 181 -68q47 -30 76 -30q20 0 30 16l49 80l155 -102l-48 -81q-68 -109 -171 -114 h-7q-71 0 -179 68q-63 40 -72 41h-3q-19 0 -42 -46l-41 -85zM228 1852l110 -58l29 57q31 62 68 62h5q17 -3 86 -45q100 -64 163 -64h7q85 5 145 100l34 55l-105 70l-33 -54q-20 -30 -56 -30q-37 0 -92 34q-102 64 -165 64h-7q-97 -5 -161 -133z" />
<glyph unicode="&#xf2;" d="M120 336v1057q0 379 421 379q422 0 422 -379v-1057q0 -378 -422 -378q-421 0 -421 378zM150 336q0 -348 391 -348q392 0 392 348v1057q0 349 -392 349q-391 0 -391 -349v-1057zM196 1974v99h243l306 -283h-264zM226 1990l263 -170h180l-242 223h-201v-53zM403 336v1057 q0 133 139 133q138 -1 138 -133v-1057q0 -132 -139 -132q-138 0 -138 132zM433 336q0 -102 108 -102q109 0 109 102v1057q0 102 -108 103q-109 0 -109 -103v-1057z" />
<glyph unicode="&#xf3;" d="M120 336v1057q0 379 421 379q422 0 422 -379v-1057q0 -378 -422 -378q-421 0 -421 378zM150 336q0 -348 391 -348q392 0 392 348v1057q0 349 -392 349q-391 0 -391 -349v-1057zM338 1790l306 283h243v-99l-285 -184h-264zM403 336v1057q0 133 139 133q138 -1 138 -133 v-1057q0 -132 -139 -132q-138 0 -138 132zM414 1820h180l263 170v53h-201zM433 336q0 -102 108 -102q109 0 109 102v1057q0 102 -108 103q-109 0 -109 -103v-1057z" />
<glyph unicode="&#xf4;" d="M120 1791l287 282h276l289 -282h-296l-131 90l-130 -90h-295zM124 336v1057q0 379 421 379q422 0 422 -379v-1057q0 -378 -422 -378q-421 0 -421 378zM154 336q0 -348 391 -348q392 0 392 348v1057q0 349 -392 349q-391 0 -391 -349v-1057zM194 1821h211l140 96l141 -96 h212l-227 222h-252zM407 336v1057q0 133 139 133q138 -1 138 -133v-1057q0 -132 -139 -132q-138 0 -138 132zM437 336q0 -102 108 -102q109 0 109 102v1057q0 102 -108 103q-109 0 -109 -103v-1057z" />
<glyph unicode="&#xf5;" d="M120 336v1057q0 379 421 379q422 0 422 -379v-1057q0 -378 -422 -378q-421 0 -421 378zM150 336q0 -348 391 -348q392 0 392 348v1057q0 349 -392 349q-391 0 -391 -349v-1057zM178 1840l42 84q70 142 187 149h7q71 0 181 -68q47 -30 76 -30q20 0 30 16l49 80l155 -102 l-48 -81q-68 -109 -171 -114h-7q-71 0 -179 68q-63 40 -72 41h-3q-19 0 -42 -46l-41 -85zM218 1852l110 -58l29 57q31 62 68 62h5q17 -3 86 -45q100 -64 163 -64h7q85 5 145 100l34 55l-105 70l-33 -54q-20 -30 -56 -30q-37 0 -92 34q-102 64 -165 64h-7q-97 -5 -161 -133z M403 336v1057q0 133 139 133q138 -1 138 -133v-1057q0 -132 -139 -132q-138 0 -138 132zM433 336q0 -102 108 -102q109 0 109 102v1057q0 102 -108 103q-109 0 -109 -103v-1057z" />
<glyph unicode="&#xf6;" d="M120 336v1057q0 379 421 379q422 0 422 -379v-1057q0 -378 -422 -378q-421 0 -421 378zM150 336q0 -348 391 -348q392 0 392 348v1057q0 349 -392 349q-391 0 -391 -349v-1057zM207 1791v272h272v-272h-272zM237 1821h212v212h-212v-212zM403 336v1057q0 133 139 133 q138 -1 138 -133v-1057q0 -132 -139 -132q-138 0 -138 132zM433 336q0 -102 108 -102q109 0 109 102v1057q0 102 -108 103q-109 0 -109 -103v-1057zM603 1791v272h273v-272h-273zM633 1821h213v212h-213v-212z" />
<glyph unicode="&#xf7;" horiz-adv-x="1045" d="M120 851v264h835v-264h-835zM150 881h775v204h-775v-204zM360 304v355h354v-355h-354zM360 1309v354h354v-354h-354zM390 334h294v295h-294v-295zM390 1339h294v294h-294v-294z" />
<glyph unicode="&#xf8;" horiz-adv-x="1093" d="M119 -332l117 381q-111 89 -111 287v1057q0 379 421 379q131 0 206 -31l69 227l171 -11l-96 -316q72 -87 72 -248v-1057q0 -378 -422 -378q-98 0 -160 17l-97 -318zM155 336q0 -184 115 -277l-111 -363l108 -7l99 322q86 -23 180 -23q392 0 392 348v1057q0 151 -76 242 l90 294l-109 7l-71 -235q-101 41 -226 41q-391 0 -391 -349v-1057zM408 512v881q0 133 139 133q123 -1 137 -110zM437 243l248 812v-719q0 -132 -139 -132q-67 0 -109 39zM438 712l216 706q-10 77 -107 78q-109 0 -109 -103v-681zM471 253q20 -19 75 -19q109 0 109 102v519z " />
<glyph unicode="&#xf9;" d="M120 336v1408h313v-1408q0 -102 108 -102q109 0 109 102v1408h313v-1408q0 -378 -422 -378q-421 0 -421 378zM150 336q0 -348 391 -348q392 0 392 348v1378h-253v-1378q0 -132 -139 -132q-138 0 -138 132v1378h-253v-1378zM196 1974v99h243l306 -283h-264zM226 1990 l263 -170h180l-242 223h-201v-53z" />
<glyph unicode="&#xfa;" d="M120 336v1408h313v-1408q0 -102 108 -102q109 0 109 102v1408h313v-1408q0 -378 -422 -378q-421 0 -421 378zM150 336q0 -348 391 -348q392 0 392 348v1378h-253v-1378q0 -132 -139 -132q-138 0 -138 132v1378h-253v-1378zM338 1790l306 283h243v-99l-285 -184h-264z M414 1820h180l263 170v53h-201z" />
<glyph unicode="&#xfb;" d="M120 1791l287 282h276l289 -282h-296l-131 90l-130 -90h-295zM124 336v1408h313v-1408q0 -102 108 -102q109 0 109 102v1408h313v-1408q0 -378 -422 -378q-421 0 -421 378zM154 336q0 -348 391 -348q392 0 392 348v1378h-253v-1378q0 -132 -139 -132q-138 0 -138 132 v1378h-253v-1378zM194 1821h211l140 96l141 -96h212l-227 222h-252z" />
<glyph unicode="&#xfc;" d="M120 336v1408h313v-1408q0 -102 108 -102q109 0 109 102v1408h313v-1408q0 -378 -422 -378q-421 0 -421 378zM150 336q0 -348 391 -348q392 0 392 348v1378h-253v-1378q0 -132 -139 -132q-138 0 -138 132v1378h-253v-1378zM207 1791v272h272v-272h-272zM237 1821h212v212 h-212v-212zM603 1791v272h273v-272h-273zM633 1821h213v212h-213v-212z" />
<glyph unicode="&#xfd;" horiz-adv-x="1106" d="M60 1744h332l182 -634l182 634h332l-350 -1001l-7 -19v-739h-313v739l-8 19zM102 1714l336 -961l10 -23v-715h253v715l9 23l336 961h-268l-204 -712l-204 712h-268zM371 1790l306 283h243v-99l-285 -184h-264zM447 1820h180l263 170v53h-201z" />
<glyph unicode="&#xfe;" horiz-adv-x="1040" d="M130 -342v2319h313v-327h77q7 0 19 -1h18q391 0 391 -427v-295q0 -315 -280 -406q-69 -22 -195 -22h-30v-841h-313zM160 -312h253v841h60q122 0 185 20q260 85 260 378v295q0 397 -361 397h-20q-12 1 -17 1h-107v327h-253v-2259zM413 778v593h114q138 0 138 -149v-295 q0 -104 -85 -139q-26 -10 -88 -10h-79zM443 808h49q56 0 76 8q67 27 67 111v295q0 119 -108 119h-84v-533z" />
<glyph unicode="&#xff;" horiz-adv-x="1106" d="M60 1744h332l182 -634l182 634h332l-350 -1001l-7 -19v-739h-313v739l-8 19zM102 1714l336 -961l10 -23v-715h253v715l9 23l336 961h-268l-204 -712l-204 712h-268zM240 1791v272h272v-272h-272zM270 1821h212v212h-212v-212zM636 1791v272h273v-272h-273zM666 1821h213 v212h-213v-212z" />
<glyph unicode="&#x2c6;" horiz-adv-x="1182" d="M166 1791l287 282h276l289 -282h-296l-131 90l-130 -90h-295zM240 1821h211l140 96l141 -96h212l-227 222h-252z" />
<glyph unicode="&#x2dc;" horiz-adv-x="987" d="M130 1840l42 84q70 142 187 149h7q71 0 181 -68q47 -30 76 -30q20 0 30 16l49 80l155 -102l-48 -81q-68 -109 -171 -114h-7q-71 0 -179 68q-63 40 -72 41h-3q-19 0 -42 -46l-41 -85zM170 1852l110 -58l29 57q31 62 68 62h5q17 -3 86 -45q100 -64 163 -64h7q85 5 145 100 l34 55l-105 70l-33 -54q-20 -30 -56 -30q-37 0 -92 34q-102 64 -165 64h-7q-97 -5 -161 -133z" />
<glyph unicode="&#x2000;" horiz-adv-x="1153" />
<glyph unicode="&#x2001;" horiz-adv-x="2307" />
<glyph unicode="&#x2002;" horiz-adv-x="1153" />
<glyph unicode="&#x2003;" horiz-adv-x="2307" />
<glyph unicode="&#x2004;" horiz-adv-x="769" />
<glyph unicode="&#x2005;" horiz-adv-x="576" />
<glyph unicode="&#x2006;" horiz-adv-x="384" />
<glyph unicode="&#x2007;" horiz-adv-x="384" />
<glyph unicode="&#x2008;" horiz-adv-x="288" />
<glyph unicode="&#x2009;" horiz-adv-x="461" />
<glyph unicode="&#x200a;" horiz-adv-x="128" />
<glyph unicode="&#x2010;" horiz-adv-x="816" d="M50 826v263h716v-263h-716zM80 856h656v203h-656v-203z" />
<glyph unicode="&#x2011;" horiz-adv-x="816" d="M50 826v263h716v-263h-716zM80 856h656v203h-656v-203z" />
<glyph unicode="&#x2012;" horiz-adv-x="816" d="M50 826v263h716v-263h-716zM80 856h656v203h-656v-203z" />
<glyph unicode="&#x2013;" horiz-adv-x="1202" d="M50 826v263h1090v-263h-1090zM80 856h1030v203h-1030v-203z" />
<glyph unicode="&#x2014;" horiz-adv-x="2078" d="M50 826v263h1993v-263h-1993zM80 856h1933v203h-1933v-203z" />
<glyph unicode="&#x2018;" horiz-adv-x="587" d="M130 1296v305l111 377h213l-58 -327h114v-355h-380zM160 1326h320v295h-120l58 327h-155l-103 -351v-271z" />
<glyph unicode="&#x2019;" horiz-adv-x="640" d="M130 1623v355h380v-305l-111 -377h-213l58 327h-114zM160 1653h120l-58 -327h155l103 351v271h-320v-295z" />
<glyph unicode="&#x201a;" horiz-adv-x="587" d="M120 -15v355h381v-304l-112 -378h-212l58 327h-115zM150 15h121l-58 -327h154l104 352v270h-321v-295z" />
<glyph unicode="&#x201c;" horiz-adv-x="1047" d="M130 1296v305l111 377h213l-58 -327h114v-355h-380zM160 1326h320v295h-120l58 327h-155l-103 -351v-271zM620 1296v305l111 377h213l-58 -327h114v-355h-380zM650 1326h320v295h-120l58 327h-155l-103 -351v-271z" />
<glyph unicode="&#x201d;" horiz-adv-x="1100" d="M130 1623v355h380v-305l-111 -377h-213l58 327h-114zM160 1653h120l-58 -327h155l103 351v271h-320v-295zM620 1623v355h380v-305l-111 -377h-213l58 327h-114zM650 1653h120l-58 -327h155l103 351v271h-320v-295z" />
<glyph unicode="&#x201e;" horiz-adv-x="1100" d="M130 -14v355h380v-305l-111 -377h-213l58 327h-114zM160 16h120l-58 -327h155l103 351v271h-320v-295zM620 -14v355h380v-305l-111 -377h-213l58 327h-114zM650 16h120l-58 -327h155l103 351v271h-320v-295z" />
<glyph unicode="&#x2022;" horiz-adv-x="1017" d="M130 983q0 157 110 268q112 111 268 111q157 0 269 -111q110 -111 110 -268q0 -156 -110 -268q-112 -110 -269 -110q-156 0 -268 110q-110 112 -110 268zM160 983q0 -144 102 -246t246 -102q145 0 247 102t102 246q0 145 -102 246q-102 103 -247 103q-144 0 -246 -103 q-102 -101 -102 -246z" />
<glyph unicode="&#x2026;" horiz-adv-x="2048" d="M120 -15v355h355v-355h-355zM150 15h295v295h-295v-295zM803 -15v355h355v-355h-355zM833 15h295v295h-295v-295zM1486 -15v355h355v-355h-355zM1516 15h295v295h-295v-295z" />
<glyph unicode="&#x202f;" horiz-adv-x="461" />
<glyph unicode="&#x2039;" horiz-adv-x="853" d="M130 1002l593 541v-371l-216 -183l216 -177v-361zM174 1002l519 -483v279l-232 191l232 197v289z" />
<glyph unicode="&#x203a;" horiz-adv-x="853" d="M130 451v361l216 177l-216 183v371l593 -541zM160 519l519 483l-519 473v-289l232 -197l-232 -191v-279z" />
<glyph unicode="&#x205f;" horiz-adv-x="576" />
<glyph unicode="&#x20ac;" horiz-adv-x="1124" d="M30 728v188h141v130h-141v188h141v347q0 428 421 428q422 0 422 -428v-278h-313v278q0 118 -108 118h-2q-107 0 -107 -118v-347h382v-188h-382v-130h382v-188h-382v-347q0 -118 108 -118q109 0 109 118v279h313v-279q0 -427 -422 -427q-421 0 -421 427v347h-141zM60 758 h141v-377q0 -397 391 -397q392 0 392 397v249h-253v-249q0 -148 -139 -148q-138 0 -138 148v377h382v128h-382v190h382v128h-382v377q0 148 137 148h2q138 0 138 -148v-248h253v248q0 398 -392 398q-391 0 -391 -398v-377h-141v-128h141v-190h-141v-128z" />
<glyph unicode="&#x2122;" horiz-adv-x="1138" d="M60 1602v142h396v-142h-119v-673h-158v673h-119zM90 1632h119v-673h98v673h119v82h-336v-82zM479 930v815h153l139 -497l137 497h154v-815h-152v332l-82 -332h-111l-85 335v-335h-153zM509 960h93v545l139 -545h63l136 548v-548h92v755h-102l-159 -579l-161 579h-101 v-755z" />
<glyph unicode="&#x25fc;" horiz-adv-x="1745" d="M0 0v1745h1745v-1745h-1745z" />
</font>
</defs>
</svg>
